# https://github.com/mikedh/trimesh

o body_visual_detail_16.obj
v 0.249180562 -0.052101914 0.104537392
v 0.249180562 -0.057924057 0.092717416
v 0.249180562 -0.061761521 0.098529794
v 0.249180562 0.097916244 -0.035455772
v 0.249180562 0.091525818 -0.032685920
v 0.249180562 0.102155212 -0.024899711
v 0.249180562 0.052101974 -0.084550857
v 0.249180562 0.057924118 -0.072730888
v 0.249180562 0.061761551 -0.078543250
v 0.249180562 0.002797043 -0.097920493
v 0.249180562 0.008801681 -0.090609992
v 0.249180562 0.008839432 -0.097594222
v 0.249180562 -0.093987534 -0.043106101
v 0.249180562 -0.082724136 -0.047930816
v 0.249180562 -0.087878067 -0.052701598
v 0.249180562 -0.087449631 -0.053423392
v 0.249180562 -0.042679154 -0.081532539
v 0.249180562 -0.065553421 -0.070096679
v 0.249180562 -0.065578476 -0.069810165
v 0.249180562 -0.065939438 -0.069036086
v 0.249180562 -0.066142807 -0.068832709
v 0.249180562 -0.072602829 -0.076531455
v 0.249180562 -0.068467392 -0.071157279
v 0.249180562 -0.068264023 -0.071360656
v 0.249180562 -0.065939438 -0.071157279
v 0.249180562 -0.065774490 -0.070921676
v 0.249180562 -0.065652939 -0.070661018
v 0.249180562 -0.065578476 -0.070383201
v 0.249180562 -0.065652939 -0.069532348
v 0.249180562 -0.065774490 -0.069271682
v 0.249180562 -0.087679184 -0.059005050
v 0.249180562 -0.087558823 -0.058238891
v 0.249180562 -0.068632370 -0.069271682
v 0.249180562 -0.066378433 -0.068667739
v 0.249180562 -0.066639084 -0.068546188
v 0.249180562 -0.066916886 -0.068471748
v 0.249180562 -0.067203415 -0.068446685
v 0.249180562 -0.067489945 -0.068471748
v 0.249180562 -0.067767746 -0.068546188
v 0.249180562 -0.079867691 -0.069874442
v 0.249180562 -0.068828354 -0.069810165
v 0.249180562 -0.068853409 -0.070096687
v 0.249180562 -0.068828354 -0.070383201
v 0.249180562 -0.068753922 -0.070661018
v 0.249180562 -0.068632370 -0.070921683
v 0.249180562 -0.068028427 -0.071525626
v 0.249180562 -0.067767746 -0.071647178
v 0.249180562 -0.064785446 -0.082529960
v 0.249180562 -0.067489945 -0.071721618
v 0.249180562 -0.067203415 -0.071746680
v 0.249180562 -0.068028427 -0.068667739
v 0.249180562 -0.068264023 -0.068832709
v 0.249180562 -0.068467392 -0.069036079
v 0.249180562 -0.087148026 -0.054206687
v 0.249180562 -0.048930588 -0.086958045
v 0.249180562 -0.049761368 -0.087077743
v 0.249180562 -0.066916916 -0.071721618
v 0.249180562 -0.066639084 -0.071647178
v 0.249180562 -0.056474991 -0.087824310
v 0.249180562 -0.066378433 -0.071525626
v 0.249180562 -0.055775284 -0.088158820
v 0.249180562 -0.066142807 -0.071360656
v 0.249180562 -0.055032272 -0.088381118
v 0.249180562 -0.052724716 -0.088335334
v 0.249180562 -0.053488419 -0.088470443
v 0.249180562 -0.054263809 -0.088485824
v 0.249180562 -0.087069595 -0.056699874
v 0.249180562 -0.086955277 -0.055868339
v 0.249180562 -0.086981674 -0.055029395
v 0.249180562 -0.068753922 -0.069532348
v 0.249180562 -0.086524704 -0.062609595
v 0.249180562 -0.086975632 -0.061978614
v 0.249180562 -0.087323563 -0.061285491
v 0.249180562 -0.050560410 -0.087334731
v 0.249180562 -0.051305222 -0.087721748
v 0.249180562 -0.051991104 -0.088083755
v 0.249180562 -0.087321427 -0.057500571
v 0.249180562 -0.087560135 -0.060546897
v 0.249180562 -0.087679642 -0.059780601
v 0.249180562 -0.035971878 -0.091787009
v 0.249180562 -0.046482498 -0.087436599
v 0.249180562 -0.047267716 -0.087140037
v 0.249180562 -0.048091477 -0.086979011
v 0.249180562 -0.016890915 -0.091907783
v 0.249180562 -0.017094284 -0.091704414
v 0.249180562 -0.013873490 -0.097061530
v 0.249180562 -0.016890915 -0.094028983
v 0.249180562 -0.002531082 -0.097927055
v 0.249180562 -0.016725937 -0.093793388
v 0.249180562 -0.017329880 -0.091539443
v 0.249180562 -0.017590561 -0.091417892
v 0.249180562 -0.025878311 -0.061510047
v 0.249180562 -0.017868363 -0.094593322
v 0.249180562 -0.017590561 -0.094518874
v 0.249180562 -0.016604386 -0.093532722
v 0.249180562 -0.016529953 -0.093254905
v 0.249180562 -0.019705399 -0.093532722
v 0.249180562 -0.019583847 -0.093793380
v 0.249180562 -0.025061813 -0.095007240
v 0.249180562 -0.017329880 -0.094397330
v 0.249180562 -0.017094284 -0.094232360
v 0.249180562 -0.016504898 -0.092968391
v 0.249180562 -0.016529953 -0.092681869
v 0.249180562 -0.019418869 -0.094028983
v 0.249180562 -0.019215500 -0.094232360
v 0.249180562 -0.018979904 -0.094397330
v 0.249180562 -0.016604386 -0.092404052
v 0.249180562 -0.016725937 -0.092143386
v 0.249180562 -0.019418869 -0.091907790
v 0.249180562 -0.019583847 -0.092143386
v 0.249180562 -0.019705399 -0.092404052
v 0.249180562 -0.017868363 -0.091343452
v 0.249180562 -0.018154892 -0.091318381
v 0.249180562 -0.018441422 -0.091343452
v 0.249180562 -0.018719223 -0.091417892
v 0.249180562 -0.018979904 -0.091539443
v 0.249180562 -0.019215500 -0.091704414
v 0.249180562 -0.019779831 -0.092681861
v 0.249180562 -0.019804886 -0.092968383
v 0.249180562 -0.019779831 -0.093254905
v 0.249180562 -0.018719223 -0.094518874
v 0.249180562 -0.018441422 -0.094593322
v 0.249180562 -0.018154892 -0.094618385
v 0.249180562 0.036583237 -0.086822662
v 0.249180562 0.036818832 -0.086987624
v 0.249180562 0.037022201 -0.087191001
v 0.249180562 0.036818832 -0.089515571
v 0.249180562 0.037022201 -0.089312194
v 0.249180562 0.041863815 -0.089508620
v 0.249180562 0.037187179 -0.089076598
v 0.249180562 0.037408218 -0.088251594
v 0.249180562 0.037383163 -0.088538116
v 0.249180562 0.037308731 -0.088815932
v 0.249180562 0.037383163 -0.087965079
v 0.249180562 0.037308731 -0.087687263
v 0.249180562 0.037187179 -0.087426597
v 0.249180562 0.031160812 -0.093361510
v 0.249180562 0.034697647 -0.089515571
v 0.249180562 0.034933243 -0.089680541
v 0.249180562 0.035758224 -0.086601600
v 0.249180562 0.035471695 -0.086626662
v 0.249180562 0.037901626 -0.055930030
v 0.249180562 0.035193893 -0.086701102
v 0.249180562 0.036322555 -0.086701102
v 0.249180562 0.036044754 -0.086626662
v 0.249180562 0.034494247 -0.087191001
v 0.249180562 0.034697647 -0.086987624
v 0.249180562 0.034933243 -0.086822654
v 0.249180562 0.034329300 -0.087426597
v 0.249180562 0.034207748 -0.087687263
v 0.249180562 0.034133285 -0.087965079
v 0.249180562 0.035193893 -0.089802093
v 0.249180562 0.035471695 -0.089876533
v 0.249180562 0.035758224 -0.089901603
v 0.249180562 0.036044754 -0.089876533
v 0.249180562 0.036322555 -0.089802093
v 0.249180562 0.036583237 -0.089680541
v 0.249180562 0.034108230 -0.088251601
v 0.249180562 0.034133285 -0.088538123
v 0.249180562 0.034207748 -0.088815932
v 0.249180562 0.020111771 -0.096066718
v 0.249180562 0.034329300 -0.089076598
v 0.249180562 0.034494247 -0.089312202
v 0.249180562 0.081640457 -0.057774512
v 0.249180562 0.081714905 -0.057496703
v 0.249180562 0.086235641 -0.054942260
v 0.249180562 0.081739975 -0.057210181
v 0.249180562 0.081714905 -0.056923660
v 0.249180562 0.078539474 -0.056645850
v 0.249180562 0.078465042 -0.056923660
v 0.249180562 0.079264969 -0.055781242
v 0.249180562 0.079525635 -0.055659690
v 0.249180562 0.079803451 -0.055585250
v 0.249180562 0.078439972 -0.057210181
v 0.249180562 0.078465042 -0.057496696
v 0.249180562 0.078539474 -0.057774512
v 0.249180562 0.078661026 -0.058035178
v 0.249180562 0.078825989 -0.058270774
v 0.249180562 0.079029373 -0.058474151
v 0.249180562 0.070735351 -0.071552520
v 0.249180562 0.079264969 -0.058639121
v 0.249180562 0.078923691 -0.063656303
v 0.249180562 0.081640457 -0.056645850
v 0.249180562 0.081518921 -0.056385177
v 0.249180562 0.092590011 -0.045507156
v 0.249180562 0.081353943 -0.056149581
v 0.249180562 0.081150574 -0.055946204
v 0.249180562 0.080914963 -0.055781234
v 0.249180562 0.080654312 -0.055659690
v 0.249180562 0.080376495 -0.055585250
v 0.249180562 0.080089966 -0.055560180
v 0.249180562 0.079029373 -0.055946212
v 0.249180562 0.078826004 -0.056149581
v 0.249180562 0.078661026 -0.056385184
v 0.249180562 0.079525635 -0.058760673
v 0.249180562 0.079803451 -0.058835113
v 0.249180562 0.080089966 -0.058860183
v 0.249180562 0.080376495 -0.058835113
v 0.249180562 0.080654312 -0.058760673
v 0.249180562 0.080914978 -0.058639121
v 0.249180562 0.081150574 -0.058474151
v 0.249180562 0.081353943 -0.058270782
v 0.249180562 0.081518906 -0.058035178
v 0.249180562 0.103526001 -0.009712150
v 0.249180562 0.103786667 -0.009590598
v 0.249180562 0.105259827 -0.013956199
v 0.249180562 0.104022278 -0.009425636
v 0.249180562 0.104225647 -0.009222251
v 0.249180562 0.104390625 -0.008986655
v 0.249180562 0.102136673 -0.006732703
v 0.249180562 0.101901077 -0.006897681
v 0.249180562 0.100603287 0.018794915
v 0.249180562 0.101697708 -0.007101051
v 0.249180562 0.071503342 -0.015885062
v 0.249180562 0.101532730 -0.007336646
v 0.249180562 0.104512161 -0.008725990
v 0.249180562 0.104586609 -0.008448173
v 0.249180562 0.107195618 -0.002746741
v 0.249180562 0.104611679 -0.008161643
v 0.249180562 0.104586609 -0.007875129
v 0.249180562 0.104512161 -0.007597312
v 0.249180562 0.104390610 -0.007336646
v 0.249180562 0.104225647 -0.007101051
v 0.249180562 0.101411178 -0.007597312
v 0.249180562 0.101336746 -0.007875129
v 0.249180562 0.101311676 -0.008161658
v 0.249180562 0.101697708 -0.009222251
v 0.249180562 0.101901077 -0.009425620
v 0.249180562 0.103248199 -0.009786582
v 0.249180562 0.102961670 -0.009811652
v 0.249180562 0.104022278 -0.006897681
v 0.249180562 0.103786682 -0.006732719
v 0.249180562 0.107941086 0.008604180
v 0.249180562 0.103248199 -0.006536720
v 0.249180562 0.102961685 -0.006511649
v 0.249180562 0.102675156 -0.006536720
v 0.249180562 0.102397339 -0.006611152
v 0.249180562 0.101336746 -0.008448173
v 0.249180562 0.101411178 -0.008725990
v 0.249180562 0.101532730 -0.008986655
v 0.249180562 0.102136673 -0.009590598
v 0.249180562 0.102397339 -0.009712150
v 0.249180562 0.102675156 -0.009786582
v 0.249180562 0.103526001 -0.006611152
v 0.249180562 0.107913971 0.012782906
v 0.249180562 0.107487961 0.019970528
v 0.249180562 0.097680557 0.047301965
v 0.249180562 0.097419891 0.047180413
v 0.249180562 0.082724182 0.067917336
v 0.249180562 0.097184296 0.047015450
v 0.249180562 0.096694397 0.046315804
v 0.249180562 0.065923324 0.047894860
v 0.249180562 0.096815948 0.046576470
v 0.249180562 0.096980911 0.046812066
v 0.249180562 0.096619949 0.046037988
v 0.249180562 0.096594894 0.045751473
v 0.249180562 0.096619949 0.045464944
v 0.249180562 0.096694397 0.045187142
v 0.249180562 0.096815948 0.044926476
v 0.249180562 0.096980911 0.044690865
v 0.249180562 0.105841263 0.031226083
v 0.249180562 0.099305481 0.044487496
v 0.249180562 0.103019302 0.042245873
v 0.249180562 0.099508865 0.044690865
v 0.249180562 0.099673828 0.044926476
v 0.249180562 0.099795380 0.045187127
v 0.249180562 0.099869812 0.045464944
v 0.249180562 0.099894882 0.045751473
v 0.249180562 0.099869812 0.046037988
v 0.249180562 0.099795380 0.046315804
v 0.249180562 0.099053390 0.052907510
v 0.249180562 0.099673828 0.046576470
v 0.249180562 0.099508865 0.046812066
v 0.249180562 0.099305481 0.047015450
v 0.249180562 0.099069885 0.047180413
v 0.249180562 0.098809219 0.047301965
v 0.249180562 0.097184296 0.044487496
v 0.249180562 0.097419891 0.044322533
v 0.249180562 0.097680557 0.044200982
v 0.249180562 0.097958374 0.044126534
v 0.249180562 0.098244888 0.044101464
v 0.249180562 0.098531418 0.044126534
v 0.249180562 0.098809219 0.044200982
v 0.249180562 0.099069885 0.044322533
v 0.249180562 0.098531402 0.047376397
v 0.249180562 0.098244888 0.047401467
v 0.249180562 0.093987579 0.063092629
v 0.249180562 0.097958374 0.047376397
v 0.249180562 0.087878097 0.072688119
v 0.249180562 0.087449692 0.073409921
v 0.249180562 0.068828400 0.089796700
v 0.249180562 0.068853470 0.090083199
v 0.249180562 0.079867737 0.089860970
v 0.249180562 0.068467438 0.091143807
v 0.249180562 0.068264068 0.091347176
v 0.249180562 0.072602890 0.096517983
v 0.249180562 0.068828400 0.090369729
v 0.249180562 0.068753967 0.090647530
v 0.249180562 0.068632416 0.090908212
v 0.249180562 0.087069656 0.076686410
v 0.249180562 0.086955337 0.075854867
v 0.249180562 0.068467438 0.089022622
v 0.249180562 0.086981720 0.075015923
v 0.249180562 0.066142868 0.088819222
v 0.249180562 0.066378464 0.088654275
v 0.249180562 0.066639130 0.088532723
v 0.249180562 0.066916946 0.088458291
v 0.249180562 0.068632416 0.089258218
v 0.249180562 0.087323624 0.081272012
v 0.249180562 0.087560181 0.080533425
v 0.249180562 0.068028473 0.091512154
v 0.249180562 0.067767807 0.091633706
v 0.249180562 0.064785477 0.102516488
v 0.249180562 0.067489990 0.091708138
v 0.249180562 0.067203476 0.091733224
v 0.249180562 0.042679214 0.101519051
v 0.249180562 0.065578537 0.090369729
v 0.249180562 0.065553467 0.090083199
v 0.249180562 0.065774521 0.089258218
v 0.249180562 0.065939499 0.089022622
v 0.249180562 0.087148071 0.074193215
v 0.249180562 0.068264068 0.088819222
v 0.249180562 0.068028473 0.088654275
v 0.249180562 0.067767807 0.088532723
v 0.249180562 0.087558868 0.078225426
v 0.249180562 0.087321472 0.077487099
v 0.249180562 0.068753967 0.089518868
v 0.249180562 0.086524750 0.082596124
v 0.249180562 0.086975677 0.081965142
v 0.249180562 0.087679687 0.079767129
v 0.249180562 0.087679245 0.078991570
v 0.249180562 0.065578537 0.089796700
v 0.249180562 0.065652969 0.089518868
v 0.249180562 0.067203476 0.088433205
v 0.249180562 0.067489990 0.088458291
v 0.249180562 0.065939499 0.091143807
v 0.249180562 0.065774521 0.090908212
v 0.249180562 0.065652969 0.090647530
v 0.249180562 0.066916946 0.091708138
v 0.249180562 0.066639130 0.091633706
v 0.249180562 0.056475021 0.107810830
v 0.249180562 0.066378464 0.091512154
v 0.249180562 0.055775314 0.108145364
v 0.249180562 0.066142868 0.091347176
v 0.249180562 0.055032303 0.108367654
v 0.249180562 0.048930618 0.106944558
v 0.249180562 0.049761429 0.107064278
v 0.249180562 0.050560470 0.107321267
v 0.249180562 0.051305252 0.107708291
v 0.249180562 0.051991135 0.108070290
v 0.249180562 0.052724777 0.108321877
v 0.249180562 0.053488449 0.108456979
v 0.249180562 0.054263870 0.108472359
v 0.249180562 0.035971939 0.111773537
v 0.249180562 0.046482529 0.107423135
v 0.249180562 0.047267776 0.107126565
v 0.249180562 0.048091537 0.106965524
v 0.249180562 0.019705429 0.113519234
v 0.249180562 0.019583877 0.113779916
v 0.249180562 0.025061874 0.114993752
v 0.249180562 0.017329941 0.111525979
v 0.249180562 0.017590622 0.111404427
v 0.249180562 0.025878342 0.081496575
v 0.249180562 0.019418930 0.114015511
v 0.249180562 0.019215530 0.114218880
v 0.249180562 0.018979935 0.114383858
v 0.249180562 0.016530014 0.113241433
v 0.249180562 0.016504928 0.112954903
v 0.249180562 -0.008801621 0.110596535
v 0.249180562 0.017094345 0.111690957
v 0.249180562 0.016890976 0.111894326
v 0.249180562 0.016725998 0.112129922
v 0.249180562 0.019804947 0.112954903
v 0.249180562 0.019779861 0.113241433
v 0.249180562 0.017868423 0.111329964
v 0.249180562 0.018154953 0.111304910
v 0.249180562 0.018441452 0.111329995
v 0.249180562 0.019418930 0.111894326
v 0.249180562 0.019583877 0.112129922
v 0.249180562 0.019705429 0.112390572
v 0.249180562 0.019779861 0.112668404
v 0.249180562 0.016530014 0.112668404
v 0.249180562 0.016604446 0.112390572
v 0.249180562 0.018719284 0.111404427
v 0.249180562 0.018979935 0.111525979
v 0.249180562 0.019215530 0.111690957
v 0.249180562 0.016725998 0.113779916
v 0.249180562 0.002531143 0.117913583
v 0.249180562 0.016890976 0.114015511
v 0.249180562 0.013873520 0.117048043
v 0.249180562 0.017094345 0.114218880
v 0.249180562 0.018719284 0.114505410
v 0.249180562 0.018441452 0.114579842
v 0.249180562 0.018154953 0.114604897
v 0.249180562 0.017868423 0.114579842
v 0.249180562 0.017590622 0.114505410
v 0.249180562 0.017329941 0.114383858
v 0.249180562 0.016604446 0.113519234
v 0.249180562 -0.002797012 0.117907021
v 0.249180562 -0.008839371 0.117580758
v 0.249180562 -0.034494217 0.107177529
v 0.249180562 -0.034329239 0.107413125
v 0.249180562 -0.034207688 0.107673806
v 0.249180562 -0.034133255 0.107951608
v 0.249180562 -0.036818771 0.109502114
v 0.249180562 -0.037022141 0.109298714
v 0.249180562 -0.041863754 0.109495156
v 0.249180562 -0.037187119 0.109063119
v 0.249180562 -0.031160751 0.113348031
v 0.249180562 -0.034697586 0.109502114
v 0.249180562 -0.034933182 0.109667062
v 0.249180562 -0.036322525 0.106687630
v 0.249180562 -0.036044693 0.106613198
v 0.249180562 -0.037901566 0.075916558
v 0.249180562 -0.035758194 0.106588143
v 0.249180562 -0.034697586 0.106974160
v 0.249180562 -0.034933182 0.106809182
v 0.249180562 -0.034108170 0.108238137
v 0.249180562 -0.034133255 0.108524636
v 0.249180562 -0.034207688 0.108802468
v 0.249180562 -0.020111740 0.116053262
v 0.249180562 -0.034329239 0.109063119
v 0.249180562 -0.034494217 0.109298714
v 0.249180562 -0.035193833 0.109788613
v 0.249180562 -0.035471665 0.109863046
v 0.249180562 -0.035758194 0.109888131
v 0.249180562 -0.037308670 0.108802468
v 0.249180562 -0.037383103 0.108524636
v 0.249180562 -0.037408188 0.108238137
v 0.249180562 -0.035471665 0.106613198
v 0.249180562 -0.035193833 0.106687630
v 0.249180562 -0.036044693 0.109863046
v 0.249180562 -0.036322525 0.109788613
v 0.249180562 -0.036583176 0.109667062
v 0.249180562 -0.037383103 0.107951608
v 0.249180562 -0.037308670 0.107673806
v 0.249180562 -0.037187119 0.107413125
v 0.249180562 -0.037022141 0.107177529
v 0.249180562 -0.036818771 0.106974160
v 0.249180562 -0.036583176 0.106809182
v 0.249180562 -0.078539444 0.076632378
v 0.249180562 -0.078464981 0.076910195
v 0.249180562 -0.078439926 0.077196709
v 0.249180562 -0.078464981 0.077483224
v 0.249180562 -0.078539444 0.077761041
v 0.249180562 -0.078923630 0.083642831
v 0.249180562 -0.079803391 0.078821648
v 0.249180562 -0.080089920 0.078846703
v 0.249180562 -0.078660965 0.078021706
v 0.249180562 -0.078825943 0.078257302
v 0.249180562 -0.079029312 0.078460686
v 0.249180562 -0.070735306 0.091539040
v 0.249180562 -0.079264908 0.078625649
v 0.249180562 -0.079525589 0.078747201
v 0.249180562 -0.080376450 0.078821648
v 0.249180562 -0.080654251 0.078747201
v 0.249180562 -0.080914932 0.078625649
v 0.249180562 -0.081640427 0.077761041
v 0.249180562 -0.081714859 0.077483224
v 0.249180562 -0.086235581 0.074928780
v 0.249180562 -0.081739914 0.077196709
v 0.249180562 -0.081714859 0.076910195
v 0.249180562 -0.081150528 0.075932732
v 0.249180562 -0.080914932 0.075767770
v 0.249180562 -0.091525772 0.052672448
v 0.249180562 -0.080654251 0.075646218
v 0.249180562 -0.080376450 0.075571770
v 0.249180562 -0.080089920 0.075546716
v 0.249180562 -0.079803391 0.075571770
v 0.249180562 -0.079525589 0.075646218
v 0.249180562 -0.079264908 0.075767770
v 0.249180562 -0.079029312 0.075932732
v 0.249180562 -0.078825943 0.076136102
v 0.249180562 -0.078660996 0.076371713
v 0.249180562 -0.081640427 0.076632378
v 0.249180562 -0.081518875 0.076371713
v 0.249180562 -0.092589951 0.065493691
v 0.249180562 -0.081353897 0.076136102
v 0.249180562 -0.097916214 0.055442300
v 0.249180562 -0.081150528 0.078460686
v 0.249180562 -0.081353897 0.078257317
v 0.249180562 -0.081518875 0.078021706
v 0.249180562 -0.101411118 0.028712518
v 0.249180562 -0.101532669 0.028973183
v 0.249180562 -0.071503281 0.035871590
v 0.249180562 -0.101697647 0.029208779
v 0.249180562 -0.101901016 0.029412148
v 0.249180562 -0.102136612 0.029577126
v 0.249180562 -0.102397293 0.029698678
v 0.249180562 -0.103248154 0.026523248
v 0.249180562 -0.102961624 0.026498177
v 0.249180562 -0.100603226 0.001191613
v 0.249180562 -0.101411118 0.027583855
v 0.249180562 -0.101336685 0.027861657
v 0.249180562 -0.104225601 0.027087579
v 0.249180562 -0.104022232 0.026884209
v 0.249180562 -0.107195572 0.022733270
v 0.249180562 -0.103786636 0.026719247
v 0.249180562 -0.107941025 0.011382348
v 0.249180562 -0.101311630 0.028148186
v 0.249180562 -0.101336685 0.028434701
v 0.249180562 -0.102136612 0.026719231
v 0.249180562 -0.101901016 0.026884209
v 0.249180562 -0.101697647 0.027087579
v 0.249180562 -0.101532669 0.027323190
v 0.249180562 -0.102155167 0.044886239
v 0.249180562 -0.102675095 0.029773110
v 0.249180562 -0.104586563 0.027861657
v 0.249180562 -0.104512131 0.027583840
v 0.249180562 -0.104390579 0.027323174
v 0.249180562 -0.102675095 0.026523248
v 0.249180562 -0.102397293 0.026597680
v 0.249180562 -0.102961624 0.029798180
v 0.249180562 -0.103248154 0.029773110
v 0.249180562 -0.105259781 0.033942727
v 0.249180562 -0.103525955 0.029698678
v 0.249180562 -0.103786636 0.029577126
v 0.249180562 -0.104022232 0.029412164
v 0.249180562 -0.104225601 0.029208779
v 0.249180562 -0.104390579 0.028973183
v 0.249180562 -0.104512131 0.028712518
v 0.249180562 -0.104586563 0.028434701
v 0.249180562 -0.104611618 0.028148186
v 0.249180562 -0.096815903 -0.024939948
v 0.249180562 -0.096980850 -0.024704337
v 0.249180562 -0.065923264 -0.027908332
v 0.249180562 -0.097184250 -0.024500968
v 0.249180562 -0.097419846 -0.024336005
v 0.249180562 -0.097680496 -0.024214454
v 0.249180562 -0.099508804 -0.026825538
v 0.249180562 -0.099305435 -0.027028922
v 0.249180562 -0.099053330 -0.032920982
v 0.249180562 -0.099069840 -0.027193885
v 0.249180562 -0.098809158 -0.027315437
v 0.249180562 -0.096619919 -0.026051459
v 0.249180562 -0.096594834 -0.025764945
v 0.249180562 -0.097958328 -0.024140006
v 0.249180562 -0.098244827 -0.024114936
v 0.249180562 -0.098531357 -0.024140006
v 0.249180562 -0.105841232 -0.011239555
v 0.249180562 -0.107487900 0.000016000
v 0.249180562 -0.098809158 -0.024214454
v 0.249180562 -0.097184250 -0.027028922
v 0.249180562 -0.096980881 -0.026825538
v 0.249180562 -0.096815903 -0.026589942
v 0.249180562 -0.096694351 -0.026329276
v 0.249180562 -0.096619919 -0.025478416
v 0.249180562 -0.096694351 -0.025200599
v 0.249180562 -0.103525955 0.026597680
v 0.249180562 -0.107913925 0.007203622
v 0.249180562 -0.099673782 -0.024939948
v 0.249180562 -0.099795334 -0.025200599
v 0.249180562 -0.103019272 -0.022259345
v 0.249180562 -0.099869766 -0.025478416
v 0.249180562 -0.099894852 -0.025764945
v 0.249180562 -0.099869766 -0.026051459
v 0.249180562 -0.099795334 -0.026329276
v 0.249180562 -0.099673782 -0.026589942
v 0.249180562 -0.099069840 -0.024335990
v 0.249180562 -0.099305435 -0.024500968
v 0.249180562 -0.099508804 -0.024704337
v 0.249180562 -0.098531357 -0.027389869
v 0.249180562 -0.098244827 -0.027414939
v 0.249180562 -0.097958328 -0.027389869
v 0.249180562 -0.097680496 -0.027315437
v 0.249180562 -0.097419846 -0.027193885
v 0.249180562 -0.036823319 0.006771645
v 0.249180562 -0.003221604 0.046816613
v 0.249180562 0.003221664 -0.026830085
v 0.249180562 0.036823379 0.013214883
v 0.261880559 -0.008839371 0.117580758
v 0.261880559 -0.008801621 0.110596535
v 0.261880559 -0.002797012 0.117907021
v 0.261880559 -0.102155167 0.044886239
v 0.261880559 -0.091525772 0.052672448
v 0.261880559 -0.097916214 0.055442300
v 0.261880559 -0.107487900 0.000016000
v 0.261880559 -0.100603226 0.001191613
v 0.261880559 -0.107913925 0.007203622
v 0.261880559 0.008839432 -0.097594222
v 0.261880559 0.008801681 -0.090609992
v 0.261880559 0.002797043 -0.097920493
v 0.261880559 0.034329300 -0.087426597
v 0.261880559 0.034494247 -0.087191001
v 0.261880559 0.102155212 -0.024899711
v 0.261880559 0.091525818 -0.032685920
v 0.261880559 0.097916244 -0.035455772
v 0.261880559 0.107487961 0.019970528
v 0.261880559 0.100603287 0.018794915
v 0.261880559 0.107913971 0.012782906
v 0.261880559 0.064785477 0.102516488
v 0.261880559 0.066639130 0.091633706
v 0.261880559 0.066916946 0.091708138
v 0.261880559 0.072602890 0.096517983
v 0.261880559 0.068028473 0.091512154
v 0.261880559 0.068264068 0.091347176
v 0.261880559 0.067203476 0.091733224
v 0.261880559 0.067489990 0.091708138
v 0.261880559 0.067767807 0.091633706
v 0.261880559 0.042679214 0.101519051
v 0.261880559 0.065774521 0.089258218
v 0.261880559 0.065652969 0.089518868
v 0.261880559 0.055032303 0.108367654
v 0.261880559 0.054263870 0.108472359
v 0.261880559 0.066142868 0.091347176
v 0.261880559 0.051991135 0.108070290
v 0.261880559 0.065939499 0.091143807
v 0.261880559 0.051305252 0.107708291
v 0.261880559 0.050560470 0.107321267
v 0.261880559 0.049761429 0.107064278
v 0.261880559 0.048930618 0.106944558
v 0.261880559 0.066378464 0.091512154
v 0.261880559 0.056475021 0.107810830
v 0.261880559 0.055775314 0.108145364
v 0.261880559 0.068467438 0.091143807
v 0.261880559 0.068632416 0.090908212
v 0.261880559 0.079867737 0.089860970
v 0.261880559 0.068753967 0.090647530
v 0.261880559 0.068828400 0.090369729
v 0.261880559 0.067489990 0.088458291
v 0.261880559 0.067203476 0.088433205
v 0.261880559 0.082724182 0.067917336
v 0.261880559 0.066916946 0.088458291
v 0.261880559 0.066639130 0.088532723
v 0.261880559 0.066378464 0.088654275
v 0.261880559 0.066142868 0.088819222
v 0.261880559 0.065939499 0.089022622
v 0.261880559 0.053488449 0.108456979
v 0.261880559 0.052724777 0.108321877
v 0.261880559 0.068467438 0.089022622
v 0.261880559 0.068264068 0.088819222
v 0.261880559 0.065578537 0.089796700
v 0.261880559 0.065553467 0.090083199
v 0.261880559 0.065578537 0.090369729
v 0.261880559 0.068028473 0.088654275
v 0.261880559 0.067767807 0.088532723
v 0.261880559 0.048091537 0.106965524
v 0.261880559 0.047267776 0.107126565
v 0.261880559 0.065774521 0.090908212
v 0.261880559 0.065652969 0.090647530
v 0.261880559 0.086981720 0.075015923
v 0.261880559 0.086955337 0.075854867
v 0.261880559 0.087560181 0.080533425
v 0.261880559 0.068632416 0.089258218
v 0.261880559 0.087679687 0.079767129
v 0.261880559 0.087679245 0.078991570
v 0.261880559 0.087069656 0.076686410
v 0.261880559 0.087321472 0.077487099
v 0.261880559 0.087558868 0.078225426
v 0.261880559 0.068853470 0.090083199
v 0.261880559 0.068828400 0.089796700
v 0.261880559 0.086524750 0.082596124
v 0.261880559 0.068753967 0.089518868
v 0.261880559 0.086975677 0.081965142
v 0.261880559 0.087323624 0.081272012
v 0.261880559 0.093987579 0.063092629
v 0.261880559 0.087878097 0.072688119
v 0.261880559 0.087449692 0.073409921
v 0.261880559 0.087148071 0.074193215
v 0.261880559 0.099673828 0.044926476
v 0.261880559 0.099508865 0.044690865
v 0.261880559 0.103019302 0.042245873
v 0.261880559 0.098531402 0.047376397
v 0.261880559 0.098809219 0.047301965
v 0.261880559 0.099053390 0.052907510
v 0.261880559 0.096980911 0.046812066
v 0.261880559 0.097184296 0.047015450
v 0.261880559 0.097419891 0.047180413
v 0.261880559 0.105841263 0.031226083
v 0.261880559 0.065923324 0.047894860
v 0.261880559 0.096694397 0.046315804
v 0.261880559 0.096815948 0.046576470
v 0.261880559 0.098244888 0.044101464
v 0.261880559 0.097958374 0.044126534
v 0.261880559 0.097680557 0.044200982
v 0.261880559 0.097419891 0.044322533
v 0.261880559 0.096694397 0.045187142
v 0.261880559 0.096619949 0.045464944
v 0.261880559 0.099894882 0.045751473
v 0.261880559 0.099869812 0.045464944
v 0.261880559 0.099795380 0.045187127
v 0.261880559 0.099305481 0.044487496
v 0.261880559 0.099069885 0.044322533
v 0.261880559 0.098809219 0.044200982
v 0.261880559 0.098531418 0.044126534
v 0.261880559 0.096594894 0.045751473
v 0.261880559 0.096619949 0.046037988
v 0.261880559 0.097680557 0.047301965
v 0.261880559 0.097958374 0.047376397
v 0.261880559 0.098244888 0.047401467
v 0.261880559 0.099069885 0.047180413
v 0.261880559 0.099305481 0.047015450
v 0.261880559 0.099508865 0.046812066
v 0.261880559 0.099673828 0.046576470
v 0.261880559 0.099795380 0.046315804
v 0.261880559 0.099869812 0.046037988
v 0.261880559 0.097184296 0.044487496
v 0.261880559 0.096980911 0.044690865
v 0.261880559 0.096815948 0.044926476
v 0.261880559 0.102397339 -0.006611152
v 0.261880559 0.102136673 -0.006732703
v 0.261880559 0.101901077 -0.006897681
v 0.261880559 0.104512161 -0.007597312
v 0.261880559 0.104586609 -0.007875129
v 0.261880559 0.107195618 -0.002746741
v 0.261880559 0.104390625 -0.008986655
v 0.261880559 0.104225647 -0.009222251
v 0.261880559 0.105259827 -0.013956199
v 0.261880559 0.104022278 -0.009425636
v 0.261880559 0.104611679 -0.008161643
v 0.261880559 0.104586609 -0.008448173
v 0.261880559 0.104512161 -0.008725990
v 0.261880559 0.101697708 -0.009222251
v 0.261880559 0.101532730 -0.008986655
v 0.261880559 0.071503342 -0.015885062
v 0.261880559 0.101532730 -0.007336646
v 0.261880559 0.101697708 -0.007101051
v 0.261880559 0.104022278 -0.006897681
v 0.261880559 0.104225647 -0.007101051
v 0.261880559 0.104390610 -0.007336646
v 0.261880559 0.103786667 -0.009590598
v 0.261880559 0.103526001 -0.009712150
v 0.261880559 0.103248199 -0.009786582
v 0.261880559 0.102136673 -0.009590598
v 0.261880559 0.101901077 -0.009425620
v 0.261880559 0.101411178 -0.008725990
v 0.261880559 0.101336746 -0.008448173
v 0.261880559 0.101311676 -0.008161658
v 0.261880559 0.102675156 -0.006536720
v 0.261880559 0.102961685 -0.006511649
v 0.261880559 0.103248199 -0.006536720
v 0.261880559 0.107941086 0.008604180
v 0.261880559 0.103526001 -0.006611152
v 0.261880559 0.103786682 -0.006732719
v 0.261880559 0.102961670 -0.009811652
v 0.261880559 0.102675156 -0.009786582
v 0.261880559 0.102397339 -0.009712150
v 0.261880559 0.101336746 -0.007875129
v 0.261880559 0.101411178 -0.007597312
v 0.261880559 0.081640457 -0.056645850
v 0.261880559 0.081714905 -0.056923660
v 0.261880559 0.086235641 -0.054942260
v 0.261880559 0.078439972 -0.057210181
v 0.261880559 0.078465042 -0.056923660
v 0.261880559 0.057924118 -0.072730888
v 0.261880559 0.079029373 -0.055946212
v 0.261880559 0.079264969 -0.055781242
v 0.261880559 0.079525635 -0.055659690
v 0.261880559 0.081739975 -0.057210181
v 0.261880559 0.081714905 -0.057496703
v 0.261880559 0.081640457 -0.057774512
v 0.261880559 0.079803451 -0.055585250
v 0.261880559 0.080089966 -0.055560180
v 0.261880559 0.080376495 -0.055585250
v 0.261880559 0.078539474 -0.056645850
v 0.261880559 0.078661026 -0.056385184
v 0.261880559 0.078826004 -0.056149581
v 0.261880559 0.080654312 -0.055659690
v 0.261880559 0.080914963 -0.055781234
v 0.261880559 0.081150574 -0.055946204
v 0.261880559 0.092590011 -0.045507156
v 0.261880559 0.081353943 -0.056149581
v 0.261880559 0.081518921 -0.056385177
v 0.261880559 0.081518906 -0.058035178
v 0.261880559 0.081353943 -0.058270782
v 0.261880559 0.078923691 -0.063656303
v 0.261880559 0.081150574 -0.058474151
v 0.261880559 0.080914978 -0.058639121
v 0.261880559 0.080654312 -0.058760673
v 0.261880559 0.080376495 -0.058835113
v 0.261880559 0.080089966 -0.058860183
v 0.261880559 0.079803451 -0.058835113
v 0.261880559 0.079525635 -0.058760673
v 0.261880559 0.070735351 -0.071552520
v 0.261880559 0.079264969 -0.058639121
v 0.261880559 0.061761551 -0.078543250
v 0.261880559 0.079029373 -0.058474151
v 0.261880559 0.078825989 -0.058270774
v 0.261880559 0.078661026 -0.058035178
v 0.261880559 0.078539474 -0.057774512
v 0.261880559 0.078465042 -0.057496696
v 0.261880559 0.036322555 -0.086701102
v 0.261880559 0.036583237 -0.086822662
v 0.261880559 0.037901626 -0.055930030
v 0.261880559 0.034933243 -0.086822654
v 0.261880559 0.035193893 -0.086701102
v 0.261880559 0.035471695 -0.086626662
v 0.261880559 0.035758224 -0.086601600
v 0.261880559 0.036044754 -0.086626662
v 0.261880559 0.034697647 -0.086987624
v 0.261880559 0.036818832 -0.086987624
v 0.261880559 0.037022201 -0.087191001
v 0.261880559 0.037187179 -0.087426597
v 0.261880559 0.037308731 -0.088815932
v 0.261880559 0.037187179 -0.089076598
v 0.261880559 0.041863815 -0.089508620
v 0.261880559 0.037022201 -0.089312194
v 0.261880559 0.036818832 -0.089515571
v 0.261880559 0.034108230 -0.088251601
v 0.261880559 0.034133285 -0.087965079
v 0.261880559 0.034207748 -0.087687263
v 0.261880559 0.052101974 -0.084550857
v 0.261880559 0.037308731 -0.087687263
v 0.261880559 0.037383163 -0.087965079
v 0.261880559 0.037408218 -0.088251594
v 0.261880559 0.037383163 -0.088538116
v 0.261880559 0.035758224 -0.089901603
v 0.261880559 0.035471695 -0.089876533
v 0.261880559 0.031160812 -0.093361510
v 0.261880559 0.035193893 -0.089802093
v 0.261880559 0.034933243 -0.089680541
v 0.261880559 0.036583237 -0.089680541
v 0.261880559 0.036322555 -0.089802093
v 0.261880559 0.036044754 -0.089876533
v 0.261880559 0.034697647 -0.089515571
v 0.261880559 0.034494247 -0.089312202
v 0.261880559 0.020111771 -0.096066718
v 0.261880559 0.034329300 -0.089076598
v 0.261880559 0.034207748 -0.088815932
v 0.261880559 0.034133285 -0.088538123
v 0.261880559 -0.017329880 -0.091539443
v 0.261880559 -0.017094284 -0.091704414
v 0.261880559 -0.019705399 -0.092404052
v 0.261880559 -0.019583847 -0.092143386
v 0.261880559 -0.042679154 -0.081532539
v 0.261880559 -0.018979904 -0.094397330
v 0.261880559 -0.019215500 -0.094232360
v 0.261880559 -0.025061813 -0.095007240
v 0.261880559 -0.019418869 -0.094028983
v 0.261880559 -0.019583847 -0.093793380
v 0.261880559 -0.019779831 -0.092681861
v 0.261880559 -0.016890915 -0.091907783
v 0.261880559 -0.016725937 -0.092143386
v 0.261880559 -0.016604386 -0.092404052
v 0.261880559 -0.002531082 -0.097927055
v 0.261880559 -0.016725937 -0.093793388
v 0.261880559 -0.013873490 -0.097061530
v 0.261880559 -0.016890915 -0.094028983
v 0.261880559 -0.017094284 -0.094232360
v 0.261880559 -0.019804886 -0.092968383
v 0.261880559 -0.035971878 -0.091787009
v 0.261880559 -0.019779831 -0.093254905
v 0.261880559 -0.019705399 -0.093532722
v 0.261880559 -0.025878311 -0.061510047
v 0.261880559 -0.018719223 -0.091417892
v 0.261880559 -0.018441422 -0.091343452
v 0.261880559 -0.017329880 -0.094397330
v 0.261880559 -0.017590561 -0.094518874
v 0.261880559 -0.017868363 -0.094593322
v 0.261880559 -0.019418869 -0.091907790
v 0.261880559 -0.019215500 -0.091704414
v 0.261880559 -0.018979904 -0.091539443
v 0.261880559 -0.018154892 -0.091318381
v 0.261880559 -0.017868363 -0.091343452
v 0.261880559 -0.017590561 -0.091417892
v 0.261880559 -0.016529953 -0.092681869
v 0.261880559 -0.016504898 -0.092968391
v 0.261880559 -0.016529953 -0.093254905
v 0.261880559 -0.016604386 -0.093532722
v 0.261880559 -0.018154892 -0.094618385
v 0.261880559 -0.018441422 -0.094593322
v 0.261880559 -0.018719223 -0.094518874
v 0.261880559 -0.046482498 -0.087436599
v 0.261880559 -0.047267716 -0.087140037
v 0.261880559 -0.072602829 -0.076531455
v 0.261880559 -0.068028427 -0.071525626
v 0.261880559 -0.068264023 -0.071360656
v 0.261880559 -0.068467392 -0.069036079
v 0.261880559 -0.068264023 -0.068832709
v 0.261880559 -0.082724136 -0.047930816
v 0.261880559 -0.067489945 -0.068471748
v 0.261880559 -0.067203415 -0.068446685
v 0.261880559 -0.065939438 -0.069036086
v 0.261880559 -0.065774490 -0.069271682
v 0.261880559 -0.068028427 -0.068667739
v 0.261880559 -0.067767746 -0.068546188
v 0.261880559 -0.066916886 -0.068471748
v 0.261880559 -0.066639084 -0.068546188
v 0.261880559 -0.066378433 -0.068667739
v 0.261880559 -0.066142807 -0.068832709
v 0.261880559 -0.065553421 -0.070096679
v 0.261880559 -0.065578476 -0.070383201
v 0.261880559 -0.066916916 -0.071721618
v 0.261880559 -0.067203415 -0.071746680
v 0.261880559 -0.064785446 -0.082529960
v 0.261880559 -0.067489945 -0.071721618
v 0.261880559 -0.067767746 -0.071647178
v 0.261880559 -0.068467392 -0.071157279
v 0.261880559 -0.068632370 -0.070921683
v 0.261880559 -0.079867691 -0.069874442
v 0.261880559 -0.068753922 -0.070661018
v 0.261880559 -0.068828354 -0.070383201
v 0.261880559 -0.065652939 -0.069532348
v 0.261880559 -0.065578476 -0.069810165
v 0.261880559 -0.086981674 -0.055029395
v 0.261880559 -0.086955277 -0.055868339
v 0.261880559 -0.068632370 -0.069271682
v 0.261880559 -0.087679184 -0.059005050
v 0.261880559 -0.087679642 -0.059780601
v 0.261880559 -0.068853409 -0.070096687
v 0.261880559 -0.068828354 -0.069810165
v 0.261880559 -0.086524704 -0.062609595
v 0.261880559 -0.068753922 -0.069532348
v 0.261880559 -0.086975632 -0.061978614
v 0.261880559 -0.065652939 -0.070661018
v 0.261880559 -0.065774490 -0.070921676
v 0.261880559 -0.065939438 -0.071157279
v 0.261880559 -0.087560135 -0.060546897
v 0.261880559 -0.087323563 -0.061285491
v 0.261880559 -0.087069595 -0.056699874
v 0.261880559 -0.087321427 -0.057500571
v 0.261880559 -0.087558823 -0.058238891
v 0.261880559 -0.050560410 -0.087334731
v 0.261880559 -0.049761368 -0.087077743
v 0.261880559 -0.048930588 -0.086958045
v 0.261880559 -0.048091477 -0.086979011
v 0.261880559 -0.055775284 -0.088158820
v 0.261880559 -0.066142807 -0.071360656
v 0.261880559 -0.056474991 -0.087824310
v 0.261880559 -0.066378433 -0.071525626
v 0.261880559 -0.066639084 -0.071647178
v 0.261880559 -0.055032272 -0.088381118
v 0.261880559 -0.054263809 -0.088485824
v 0.261880559 -0.053488419 -0.088470443
v 0.261880559 -0.052724716 -0.088335334
v 0.261880559 -0.051991104 -0.088083755
v 0.261880559 -0.051305222 -0.087721748
v 0.261880559 -0.093987534 -0.043106101
v 0.261880559 -0.087878067 -0.052701598
v 0.261880559 -0.087449631 -0.053423392
v 0.261880559 -0.087148026 -0.054206687
v 0.261880559 -0.105841232 -0.011239555
v 0.261880559 -0.103019272 -0.022259345
v 0.261880559 -0.099508804 -0.024704337
v 0.261880559 -0.099305435 -0.027028922
v 0.261880559 -0.099508804 -0.026825538
v 0.261880559 -0.099053330 -0.032920982
v 0.261880559 -0.099305435 -0.024500968
v 0.261880559 -0.099069840 -0.024335990
v 0.261880559 -0.098809158 -0.024214454
v 0.261880559 -0.098531357 -0.024140006
v 0.261880559 -0.098244827 -0.024114936
v 0.261880559 -0.099894852 -0.025764945
v 0.261880559 -0.099869766 -0.025478416
v 0.261880559 -0.097958328 -0.024140006
v 0.261880559 -0.097680496 -0.024214454
v 0.261880559 -0.097419846 -0.024336005
v 0.261880559 -0.097184250 -0.024500968
v 0.261880559 -0.096980850 -0.024704337
v 0.261880559 -0.065923264 -0.027908332
v 0.261880559 -0.096815903 -0.024939948
v 0.261880559 -0.098531357 -0.027389869
v 0.261880559 -0.098809158 -0.027315437
v 0.261880559 -0.099069840 -0.027193885
v 0.261880559 -0.099673782 -0.026589942
v 0.261880559 -0.099795334 -0.026329276
v 0.261880559 -0.099869766 -0.026051459
v 0.261880559 -0.099795334 -0.025200599
v 0.261880559 -0.099673782 -0.024939948
v 0.261880559 -0.096694351 -0.025200599
v 0.261880559 -0.096619919 -0.025478416
v 0.261880559 -0.096594834 -0.025764945
v 0.261880559 -0.096619919 -0.026051459
v 0.261880559 -0.096694351 -0.026329276
v 0.261880559 -0.096815903 -0.026589942
v 0.261880559 -0.096980881 -0.026825538
v 0.261880559 -0.097184250 -0.027028922
v 0.261880559 -0.097419846 -0.027193885
v 0.261880559 -0.097680496 -0.027315437
v 0.261880559 -0.097958328 -0.027389869
v 0.261880559 -0.098244827 -0.027414939
v 0.261880559 -0.107195572 0.022733270
v 0.261880559 -0.104022232 0.026884209
v 0.261880559 -0.104225601 0.027087579
v 0.261880559 -0.101901016 0.029412148
v 0.261880559 -0.102136612 0.029577126
v 0.261880559 -0.102397293 0.029698678
v 0.261880559 -0.104390579 0.027323174
v 0.261880559 -0.104512131 0.027583840
v 0.261880559 -0.104586563 0.027861657
v 0.261880559 -0.104390579 0.028973183
v 0.261880559 -0.104225601 0.029208779
v 0.261880559 -0.105259781 0.033942727
v 0.261880559 -0.104022232 0.029412164
v 0.261880559 -0.102675095 0.029773110
v 0.261880559 -0.102961624 0.029798180
v 0.261880559 -0.101697647 0.029208779
v 0.261880559 -0.101532669 0.028973183
v 0.261880559 -0.071503281 0.035871590
v 0.261880559 -0.101411118 0.028712518
v 0.261880559 -0.104611618 0.028148186
v 0.261880559 -0.104586563 0.028434701
v 0.261880559 -0.104512131 0.028712518
v 0.261880559 -0.103786636 0.029577126
v 0.261880559 -0.103525955 0.029698678
v 0.261880559 -0.103248154 0.029773110
v 0.261880559 -0.101336685 0.028434701
v 0.261880559 -0.101311630 0.028148186
v 0.261880559 -0.101336685 0.027861657
v 0.261880559 -0.101901016 0.026884209
v 0.261880559 -0.102136612 0.026719231
v 0.261880559 -0.102397293 0.026597680
v 0.261880559 -0.102675095 0.026523248
v 0.261880559 -0.102961624 0.026498177
v 0.261880559 -0.103248154 0.026523248
v 0.261880559 -0.107941025 0.011382348
v 0.261880559 -0.103525955 0.026597680
v 0.261880559 -0.103786636 0.026719247
v 0.261880559 -0.101411118 0.027583855
v 0.261880559 -0.101532669 0.027323190
v 0.261880559 -0.101697647 0.027087579
v 0.261880559 -0.080654251 0.075646218
v 0.261880559 -0.080914932 0.075767770
v 0.261880559 -0.086235581 0.074928780
v 0.261880559 -0.081353897 0.078257317
v 0.261880559 -0.078923630 0.083642831
v 0.261880559 -0.081150528 0.078460686
v 0.261880559 -0.080914932 0.078625649
v 0.261880559 -0.080654251 0.078747201
v 0.261880559 -0.080376450 0.078821648
v 0.261880559 -0.080089920 0.078846703
v 0.261880559 -0.081640427 0.076632378
v 0.261880559 -0.081714859 0.076910195
v 0.261880559 -0.081739914 0.077196709
v 0.261880559 -0.081714859 0.077483224
v 0.261880559 -0.081640427 0.077761041
v 0.261880559 -0.081518875 0.078021706
v 0.261880559 -0.079029312 0.078460686
v 0.261880559 -0.078825943 0.078257302
v 0.261880559 -0.057924057 0.092717416
v 0.261880559 -0.078660965 0.078021706
v 0.261880559 -0.078539444 0.077761041
v 0.261880559 -0.078464981 0.077483224
v 0.261880559 -0.078439926 0.077196709
v 0.261880559 -0.078464981 0.076910195
v 0.261880559 -0.078539444 0.076632378
v 0.261880559 -0.081150528 0.075932732
v 0.261880559 -0.092589951 0.065493691
v 0.261880559 -0.081353897 0.076136102
v 0.261880559 -0.081518875 0.076371713
v 0.261880559 -0.079803391 0.078821648
v 0.261880559 -0.079525589 0.078747201
v 0.261880559 -0.070735306 0.091539040
v 0.261880559 -0.079264908 0.078625649
v 0.261880559 -0.061761521 0.098529794
v 0.261880559 -0.079264908 0.075767770
v 0.261880559 -0.079525589 0.075646218
v 0.261880559 -0.079803391 0.075571770
v 0.261880559 -0.078660996 0.076371713
v 0.261880559 -0.078825943 0.076136102
v 0.261880559 -0.079029312 0.075932732
v 0.261880559 -0.080089920 0.075546716
v 0.261880559 -0.080376450 0.075571770
v 0.261880559 -0.034933182 0.106809182
v 0.261880559 -0.035193833 0.106687630
v 0.261880559 -0.037901566 0.075916558
v 0.261880559 -0.034108170 0.108238137
v 0.261880559 -0.034133255 0.107951608
v 0.261880559 -0.034207688 0.107673806
v 0.261880559 -0.034329239 0.107413125
v 0.261880559 -0.034494217 0.107177529
v 0.261880559 -0.034697586 0.106974160
v 0.261880559 -0.037022141 0.109298714
v 0.261880559 -0.041863754 0.109495156
v 0.261880559 -0.037187119 0.109063119
v 0.261880559 -0.037308670 0.108802468
v 0.261880559 -0.036322525 0.109788613
v 0.261880559 -0.031160751 0.113348031
v 0.261880559 -0.036044693 0.109863046
v 0.261880559 -0.035758194 0.109888131
v 0.261880559 -0.035471665 0.109863046
v 0.261880559 -0.035193833 0.109788613
v 0.261880559 -0.034933182 0.109667062
v 0.261880559 -0.035471665 0.106613198
v 0.261880559 -0.035758194 0.106588143
v 0.261880559 -0.036044693 0.106613198
v 0.261880559 -0.036818771 0.109502114
v 0.261880559 -0.036583176 0.109667062
v 0.261880559 -0.034697586 0.109502114
v 0.261880559 -0.034494217 0.109298714
v 0.261880559 -0.020111740 0.116053262
v 0.261880559 -0.034329239 0.109063119
v 0.261880559 -0.034207688 0.108802468
v 0.261880559 -0.034133255 0.108524636
v 0.261880559 -0.037022141 0.107177529
v 0.261880559 -0.037187119 0.107413125
v 0.261880559 -0.052101914 0.104537392
v 0.261880559 -0.037308670 0.107673806
v 0.261880559 -0.037383103 0.107951608
v 0.261880559 -0.037408188 0.108238137
v 0.261880559 -0.037383103 0.108524636
v 0.261880559 -0.036322525 0.106687630
v 0.261880559 -0.036583176 0.106809182
v 0.261880559 -0.036818771 0.106974160
v 0.261880559 0.017329941 0.111525979
v 0.261880559 0.017094345 0.111690957
v 0.261880559 0.018979935 0.114383858
v 0.261880559 0.019215530 0.114218880
v 0.261880559 0.025061874 0.114993752
v 0.261880559 0.019418930 0.114015511
v 0.261880559 0.019583877 0.113779916
v 0.261880559 0.016890976 0.111894326
v 0.261880559 0.016725998 0.112129922
v 0.261880559 0.016604446 0.112390572
v 0.261880559 0.002531143 0.117913583
v 0.261880559 0.016725998 0.113779916
v 0.261880559 0.013873520 0.117048043
v 0.261880559 0.016890976 0.114015511
v 0.261880559 0.017094345 0.114218880
v 0.261880559 0.018719284 0.111404427
v 0.261880559 0.018441452 0.111329995
v 0.261880559 0.025878342 0.081496575
v 0.261880559 0.017329941 0.114383858
v 0.261880559 0.017590622 0.114505410
v 0.261880559 0.017868423 0.114579842
v 0.261880559 0.019705429 0.112390572
v 0.261880559 0.019583877 0.112129922
v 0.261880559 0.016530014 0.112668404
v 0.261880559 0.016504928 0.112954903
v 0.261880559 0.016530014 0.113241433
v 0.261880559 0.016604446 0.113519234
v 0.261880559 0.019804947 0.112954903
v 0.261880559 0.035971939 0.111773537
v 0.261880559 0.019779861 0.113241433
v 0.261880559 0.019705429 0.113519234
v 0.261880559 0.019779861 0.112668404
v 0.261880559 0.018154953 0.111304910
v 0.261880559 0.017868423 0.111329964
v 0.261880559 0.017590622 0.111404427
v 0.261880559 0.018154953 0.114604897
v 0.261880559 0.018441452 0.114579842
v 0.261880559 0.018719284 0.114505410
v 0.261880559 0.019418930 0.111894326
v 0.261880559 0.019215530 0.111690957
v 0.261880559 0.018979935 0.111525979
v 0.261880559 0.046482529 0.107423135
v 0.261880559 -0.036823319 0.006771645
v 0.261880559 -0.003221604 0.046816613
v 0.261880559 0.003221664 -0.026830085
v 0.261880559 0.036823379 0.013214883
f 29 894 893
f 18 881 19
f 60 920 62
f 62 920 918
f 19 894 29
f 19 881 894
f 21 880 34
f 30 874 20
f 20 874 873
f 20 873 21
f 21 873 880
f 47 887 49
f 43 900 892
f 535 963 536
f 543 967 544
f 544 967 966
f 42 900 43
f 49 887 886
f 544 966 545
f 545 966 965
f 545 965 546
f 546 965 964
f 23 888 24
f 24 888 867
f 18 882 881
f 536 963 962
f 50 884 57
f 536 962 547
f 547 962 961
f 547 961 548
f 548 961 960
f 566 968 543
f 543 968 967
f 28 882 18
f 120 842 97
f 110 824 111
f 111 824 823
f 111 823 118
f 118 823 831
f 118 831 119
f 119 831 840
f 38 871 39
f 39 871 876
f 542 941 940
f 97 842 843
f 97 843 98
f 98 843 830
f 98 830 104
f 104 830 829
f 109 850 110
f 110 850 824
f 555 943 556
f 29 893 30
f 27 905 28
f 28 905 882
f 542 940 559
f 559 940 939
f 559 939 560
f 560 939 938
f 560 938 561
f 561 938 934
f 34 880 879
f 30 893 874
f 33 897 70
f 70 897 903
f 70 903 41
f 41 903 901
f 41 901 42
f 42 901 900
f 539 941 542
f 494 1009 999
f 563 952 971
f 484 988 486
f 486 988 987
f 486 987 487
f 487 987 975
f 487 975 488
f 488 975 976
f 493 1009 494
f 562 952 563
f 524 951 525
f 525 951 949
f 525 949 527
f 527 949 948
f 527 948 528
f 528 948 947
f 546 964 535
f 535 964 963
f 530 936 531
f 152 811 810
f 556 943 957
f 563 971 564
f 564 971 970
f 564 970 565
f 565 970 969
f 565 969 566
f 566 969 968
f 529 946 537
f 531 936 935
f 494 999 500
f 500 999 998
f 500 998 501
f 501 998 997
f 501 997 483
f 483 997 990
f 44 891 45
f 557 956 558
f 558 956 955
f 558 955 530
f 530 955 936
f 561 934 551
f 551 934 959
f 43 892 44
f 44 892 891
f 557 957 956
f 45 891 889
f 45 889 23
f 23 889 888
f 53 868 33
f 33 868 897
f 24 867 46
f 46 867 866
f 46 866 47
f 552 959 958
f 537 946 945
f 537 945 538
f 538 945 942
f 538 942 539
f 539 942 941
f 548 960 524
f 524 960 951
f 551 959 552
f 47 866 887
f 552 958 554
f 554 958 944
f 554 944 555
f 555 944 943
f 528 947 529
f 529 947 946
f 556 957 557
f 108 833 84
f 127 798 128
f 128 798 797
f 128 797 130
f 130 797 795
f 130 795 133
f 133 795 794
f 153 808 154
f 154 808 807
f 138 816 815
f 84 833 832
f 84 832 85
f 85 832 822
f 85 822 90
f 90 822 821
f 157 812 127
f 127 812 798
f 91 855 112
f 105 829 827
f 149 584 583
f 123 860 93
f 93 860 849
f 93 849 94
f 94 849 848
f 94 848 100
f 100 848 847
f 104 829 105
f 112 855 854
f 154 807 155
f 155 807 814
f 155 814 156
f 156 814 813
f 156 813 157
f 157 813 812
f 163 816 138
f 162 819 818
f 147 785 790
f 147 790 146
f 146 790 584
f 124 783 144
f 144 783 782
f 159 820 160
f 160 820 819
f 160 819 162
f 148 785 147
f 162 818 163
f 163 818 816
f 141 787 143
f 143 787 786
f 138 815 139
f 139 815 811
f 139 811 152
f 352 628 604
f 145 789 140
f 112 854 113
f 113 854 853
f 113 853 114
f 114 853 846
f 107 834 108
f 108 834 833
f 144 782 145
f 145 782 789
f 146 584 149
f 140 789 788
f 140 788 141
f 141 788 787
f 135 803 136
f 136 803 793
f 143 786 148
f 148 786 785
f 103 857 856
f 89 838 836
f 89 836 95
f 95 836 859
f 122 861 123
f 123 861 860
f 96 858 102
f 102 858 857
f 102 857 103
f 87 838 89
f 103 856 107
f 107 856 834
f 100 847 101
f 101 847 839
f 35 878 36
f 36 878 877
f 36 877 37
f 37 877 872
f 25 907 26
f 57 883 58
f 58 883 921
f 58 921 60
f 60 921 920
f 119 840 120
f 120 840 842
f 62 918 25
f 25 918 907
f 37 872 38
f 26 907 906
f 26 906 27
f 27 906 905
f 49 886 50
f 50 886 884
f 101 839 87
f 87 839 838
f 114 846 115
f 90 821 91
f 91 821 855
f 149 583 150
f 150 583 801
f 150 801 151
f 151 801 800
f 151 800 158
f 158 800 799
f 109 851 850
f 115 846 845
f 105 827 106
f 106 827 826
f 106 826 121
f 121 826 862
f 121 862 122
f 122 862 861
f 53 869 868
f 38 872 871
f 95 859 96
f 96 859 858
f 39 876 51
f 51 876 875
f 51 875 52
f 52 875 869
f 52 869 53
f 57 884 883
f 34 879 35
f 35 879 878
f 115 845 116
f 116 845 852
f 116 852 117
f 117 852 851
f 117 851 109
f 479 576 1038
f 499 1006 972
f 499 972 497
f 3 1045 1087
f 3 1087 1
f 1 1087 1064
f 1 1064 407
f 407 1064 1068
f 407 1068 409
f 446 1043 452
f 479 1038 477
f 61 917 919
f 61 919 59
f 59 919 885
f 59 885 48
f 48 885 865
f 48 865 22
f 452 1043 1045
f 88 837 86
f 137 817 161
f 32 912 911
f 32 911 77
f 12 580 10
f 10 580 582
f 10 582 88
f 582 835 88
f 88 835 837
f 452 1045 3
f 9 776 802
f 9 802 7
f 477 1038 1014
f 477 1014 460
f 460 1014 1016
f 460 1016 446
f 446 1016 1043
f 540 577 541
f 475 1023 1022
f 475 1022 476
f 476 1022 1040
f 476 1040 478
f 478 1040 1039
f 481 1015 482
f 482 1015 1027
f 540 932 577
f 462 1023 475
f 541 577 550
f 550 577 579
f 550 579 499
f 579 1006 499
f 461 1024 462
f 462 1024 1023
f 497 972 983
f 497 983 515
f 482 1027 458
f 40 890 902
f 40 902 71
f 71 902 904
f 71 904 72
f 72 904 909
f 72 909 73
f 63 922 917
f 63 917 61
f 137 809 817
f 458 1027 1026
f 458 1026 459
f 459 1026 1025
f 459 1025 461
f 461 1025 1024
f 388 1105 1107
f 388 1107 390
f 64 924 65
f 99 841 80
f 80 841 863
f 80 863 81
f 75 927 926
f 75 926 76
f 161 817 580
f 161 580 12
f 64 925 924
f 99 828 841
f 65 924 923
f 65 923 66
f 66 923 922
f 66 922 63
f 86 837 828
f 86 828 99
f 287 656 665
f 287 665 271
f 341 613 591
f 218 708 206
f 352 604 353
f 353 604 603
f 353 603 345
f 345 603 614
f 345 614 343
f 185 761 742
f 185 742 166
f 271 665 662
f 341 591 313
f 313 591 594
f 313 594 296
f 296 594 617
f 296 617 293
f 351 629 628
f 351 628 352
f 532 937 933
f 31 898 912
f 31 912 32
f 22 865 890
f 22 890 40
f 15 929 928
f 15 928 13
f 13 928 937
f 13 937 532
f 79 898 31
f 532 933 553
f 73 909 908
f 73 908 78
f 7 802 796
f 7 796 129
f 129 796 809
f 129 809 137
f 590 732 233
f 271 662 263
f 263 662 669
f 263 669 261
f 76 926 925
f 76 925 64
f 246 588 245
f 245 588 590
f 245 590 233
f 515 983 574
f 233 732 705
f 233 705 218
f 289 657 656
f 289 656 287
f 78 908 899
f 78 899 79
f 79 899 898
f 447 1042 1041
f 450 1031 1029
f 450 1029 451
f 451 1029 1028
f 451 1028 453
f 453 1028 1044
f 502 1001 503
f 503 1001 1000
f 454 1042 447
f 449 1031 450
f 447 1041 448
f 448 1041 1021
f 448 1021 455
f 455 1021 1020
f 445 1032 449
f 449 1032 1031
f 489 977 507
f 507 977 985
f 503 1000 504
f 491 1004 511
f 511 1004 1003
f 511 1003 512
f 512 1003 1002
f 512 1002 502
f 502 1002 1001
f 495 974 496
f 496 974 973
f 507 985 513
f 504 1000 1011
f 504 1011 505
f 505 1011 1010
f 505 1010 493
f 493 1010 1009
f 490 1005 491
f 491 1005 1004
f 549 1007 490
f 510 978 495
f 495 978 974
f 514 996 516
f 516 996 995
f 496 973 498
f 498 973 1008
f 498 1008 549
f 549 1008 1007
f 510 979 978
f 490 1007 1005
f 523 991 508
f 508 991 980
f 531 935 533
f 533 935 954
f 533 954 534
f 534 954 953
f 534 953 562
f 518 994 984
f 513 985 986
f 513 986 514
f 514 986 996
f 483 990 484
f 484 990 988
f 516 995 517
f 517 995 994
f 517 994 518
f 463 1039 1037
f 518 984 519
f 519 984 982
f 488 976 489
f 489 976 977
f 508 980 509
f 509 980 979
f 509 979 510
f 399 573 388
f 444 1033 445
f 445 1033 1032
f 471 1046 472
f 472 1046 1051
f 421 1081 571
f 421 571 400
f 400 571 399
f 399 571 573
f 444 1034 1033
f 573 1105 388
f 441 1036 442
f 442 1036 1035
f 390 1107 1099
f 390 1099 360
f 360 1099 1123
f 360 1123 354
f 354 1123 1136
f 474 1050 1049
f 515 574 506
f 506 574 576
f 506 576 479
f 553 933 932
f 553 932 540
f 472 1051 473
f 473 1051 1050
f 473 1050 474
f 354 1136 355
f 474 1049 441
f 441 1049 1036
f 467 1053 468
f 468 1053 1052
f 442 1035 443
f 443 1035 1034
f 443 1034 444
f 520 982 981
f 456 1020 1019
f 463 1037 464
f 464 1037 1013
f 464 1013 466
f 466 1013 1012
f 466 1012 467
f 467 1012 1053
f 519 982 520
f 455 1020 456
f 468 1052 469
f 469 1052 1048
f 469 1048 470
f 470 1048 1047
f 470 1047 471
f 471 1047 1046
f 478 1039 463
f 453 1044 454
f 409 1068 1081
f 409 1081 421
f 456 1019 457
f 457 1019 1018
f 457 1018 480
f 480 1018 1017
f 480 1017 481
f 481 1017 1015
f 562 953 952
f 454 1044 1042
f 520 981 521
f 521 981 993
f 521 993 522
f 522 993 992
f 522 992 523
f 523 992 991
f 378 1133 379
f 440 1093 412
f 412 1093 1092
f 412 1092 413
f 413 1092 1076
f 429 1090 435
f 435 1090 1089
f 386 1134 378
f 378 1134 1133
f 440 1094 1093
f 379 1133 1117
f 379 1117 380
f 380 1117 1116
f 438 1085 439
f 439 1085 1094
f 381 1126 373
f 373 1126 1122
f 373 1122 374
f 436 1089 1088
f 383 1118 1104
f 383 1104 372
f 372 1104 1103
f 372 1103 371
f 371 1103 1102
f 389 1108 387
f 387 1108 1106
f 435 1089 436
f 374 1122 1124
f 436 1088 437
f 437 1088 1086
f 437 1086 438
f 438 1086 1085
f 406 1063 408
f 408 1063 1065
f 439 1094 440
f 389 1109 1108
f 411 1079 1073
f 403 1059 404
f 404 1059 1058
f 396 1114 397
f 397 1114 1113
f 397 1113 391
f 391 1113 1109
f 391 1109 389
f 410 1079 411
f 420 1083 422
f 422 1083 1082
f 408 1065 427
f 427 1065 1066
f 427 1066 428
f 428 1066 1091
f 428 1091 429
f 429 1091 1090
f 419 1084 420
f 374 1124 358
f 358 1124 1125
f 385 1135 386
f 386 1135 1134
f 404 1058 418
f 418 1058 1057
f 418 1057 419
f 419 1057 1084
f 382 1118 383
f 420 1084 1083
f 417 1054 416
f 416 1054 1062
f 422 1082 423
f 423 1082 1080
f 423 1080 410
f 410 1080 1079
f 384 1110 385
f 362 1129 375
f 375 1129 1128
f 368 1119 382
f 382 1119 1118
f 376 1127 377
f 377 1127 1111
f 377 1111 384
f 384 1111 1110
f 362 1095 1129
f 385 1110 1135
f 371 1102 370
f 370 1102 1096
f 291 651 292
f 292 651 650
f 292 650 297
f 297 650 619
f 297 619 298
f 306 625 624
f 319 602 601
f 319 601 320
f 320 601 627
f 339 593 340
f 340 593 592
f 304 626 305
f 305 626 625
f 305 625 306
f 298 619 618
f 306 624 307
f 307 624 623
f 318 633 332
f 332 633 632
f 370 1096 361
f 361 1096 1095
f 361 1095 362
f 359 1125 1101
f 381 1116 1126
f 392 1132 393
f 393 1132 1131
f 393 1131 394
f 394 1131 1130
f 394 1130 395
f 395 1130 1115
f 358 1125 359
f 380 1116 381
f 387 1106 398
f 398 1106 1121
f 398 1121 367
f 367 1121 1120
f 367 1120 368
f 368 1120 1119
f 366 1097 392
f 392 1097 1132
f 327 653 291
f 375 1128 376
f 376 1128 1127
f 299 616 294
f 294 616 615
f 294 615 295
f 295 615 596
f 295 596 311
f 311 596 595
f 395 1115 396
f 291 653 651
f 359 1101 364
f 364 1101 1100
f 364 1100 365
f 365 1100 1098
f 365 1098 366
f 366 1098 1097
f 86 87 88
f 94 100 86
f 97 98 99
f 88 96 10
f 88 95 96
f 89 95 88
f 93 94 86
f 62 75 76
f 25 75 62
f 33 79 31
f 84 85 11
f 25 83 55
f 25 82 83
f 17 82 25
f 17 81 82
f 10 11 12
f 7 8 9
f 4 5 6
f 931 54 895
f 910 67 911
f 911 67 77
f 609 348 610
f 610 348 347
f 610 347 611
f 611 347 346
f 611 346 637
f 637 346 357
f 1 2 3
f 895 54 69
f 40 44 22
f 40 43 44
f 42 43 40
f 40 41 42
f 14 38 39
f 80 81 17
f 31 32 33
f 16 53 54
f 19 29 17
f 17 28 18
f 15 14 16
f 13 14 15
f 14 35 36
f 14 34 35
f 21 34 14
f 55 56 25
f 17 30 20
f 17 29 30
f 17 27 28
f 26 27 17
f 25 26 17
f 22 23 24
f 20 21 14
f 17 18 19
f 64 65 62
f 61 60 62
f 59 60 61
f 16 52 53
f 14 52 16
f 53 68 69
f 67 68 53
f 62 66 63
f 62 65 66
f 910 68 67
f 61 62 63
f 24 46 22
f 22 45 23
f 59 58 60
f 48 58 59
f 48 57 58
f 50 57 48
f 416 1062 401
f 415 1075 430
f 430 1075 1074
f 430 1074 431
f 431 1074 1055
f 431 1055 417
f 417 1055 1054
f 916 83 864
f 864 83 82
f 913 75 74
f 401 1062 1061
f 401 1061 402
f 402 1061 1060
f 402 1060 403
f 403 1060 1059
f 413 1076 415
f 415 1076 1075
f 638 356 1136
f 433 1069 1067
f 396 1115 1114
f 913 74 914
f 914 74 56
f 914 56 915
f 915 56 55
f 915 55 916
f 916 55 83
f 432 1069 433
f 1136 356 355
f 864 82 863
f 863 82 81
f 929 15 930
f 930 15 16
f 930 16 931
f 931 16 54
f 927 75 913
f 405 1078 1077
f 426 1071 1070
f 426 1070 432
f 432 1070 1069
f 659 321 641
f 641 321 303
f 433 1067 434
f 434 1067 1078
f 434 1078 405
f 425 1071 426
f 405 1077 406
f 406 1077 1063
f 411 1073 424
f 424 1073 1072
f 895 69 896
f 896 69 68
f 896 68 910
f 642 301 647
f 657 289 658
f 658 289 290
f 658 290 659
f 659 290 321
f 608 349 609
f 609 349 348
f 641 303 642
f 642 303 301
f 333 602 319
f 647 301 300
f 647 300 648
f 648 300 326
f 637 357 638
f 638 357 356
f 424 1072 425
f 425 1072 1071
f 168 749 741
f 203 765 764
f 203 764 164
f 164 764 751
f 227 713 228
f 228 713 725
f 165 750 167
f 167 750 749
f 167 749 168
f 202 765 203
f 168 741 183
f 183 741 740
f 200 768 201
f 201 768 767
f 217 711 219
f 219 711 710
f 219 710 220
f 220 710 704
f 241 724 242
f 239 726 240
f 240 726 714
f 240 714 227
f 227 714 713
f 213 717 215
f 215 717 716
f 228 725 241
f 241 725 724
f 220 704 221
f 242 724 737
f 242 737 243
f 243 737 736
f 226 728 238
f 238 728 727
f 201 767 202
f 202 767 765
f 173 752 172
f 221 703 222
f 222 703 720
f 215 716 224
f 224 716 739
f 224 739 225
f 225 739 738
f 225 738 226
f 226 738 728
f 193 746 757
f 172 752 748
f 253 672 251
f 251 672 671
f 251 671 255
f 255 671 687
f 255 687 256
f 256 687 686
f 236 729 237
f 232 718 734
f 221 704 703
f 205 721 207
f 207 721 709
f 222 720 223
f 223 720 719
f 223 719 231
f 231 719 718
f 231 718 232
f 239 727 726
f 216 712 217
f 217 712 711
f 172 748 171
f 171 748 747
f 171 747 192
f 192 747 746
f 192 746 193
f 196 772 197
f 178 778 179
f 179 778 777
f 132 806 131
f 131 806 805
f 131 805 134
f 134 805 804
f 134 804 135
f 135 804 803
f 200 769 768
f 197 772 771
f 136 793 126
f 126 793 792
f 126 792 125
f 125 792 791
f 125 791 124
f 124 791 783
f 133 794 132
f 196 773 772
f 153 810 808
f 158 799 159
f 159 799 820
f 179 777 181
f 181 777 775
f 181 775 195
f 195 775 773
f 195 773 196
f 132 794 806
f 174 743 175
f 175 743 781
f 197 771 198
f 198 771 770
f 198 770 199
f 199 770 769
f 199 769 200
f 176 781 780
f 169 756 755
f 169 755 170
f 170 755 744
f 170 744 174
f 174 744 743
f 188 759 189
f 189 759 758
f 175 781 176
f 194 756 169
f 176 780 177
f 177 780 779
f 177 779 178
f 178 779 778
f 193 757 194
f 194 757 756
f 238 727 239
f 189 758 190
f 184 763 186
f 186 763 762
f 186 762 187
f 187 762 760
f 187 760 188
f 188 760 759
f 164 751 165
f 165 751 750
f 237 729 700
f 190 758 754
f 190 754 191
f 191 754 753
f 191 753 173
f 173 753 752
f 183 740 184
f 184 740 763
f 320 627 304
f 260 698 277
f 277 698 697
f 334 621 335
f 335 621 620
f 335 620 324
f 324 620 636
f 324 636 323
f 323 636 635
f 284 684 683
f 304 627 626
f 322 631 302
f 302 631 630
f 302 630 308
f 308 630 644
f 308 644 327
f 327 644 653
f 307 623 334
f 280 675 674
f 318 634 633
f 288 689 247
f 247 689 688
f 277 697 278
f 278 697 676
f 278 676 279
f 279 676 675
f 279 675 280
f 334 623 621
f 336 607 337
f 337 607 639
f 281 673 282
f 282 673 685
f 282 685 283
f 283 685 684
f 283 684 284
f 342 592 612
f 314 599 598
f 314 598 315
f 315 598 597
f 315 597 339
f 339 597 593
f 298 618 299
f 299 618 616
f 340 592 342
f 312 599 314
f 342 612 344
f 344 612 605
f 344 605 336
f 336 605 607
f 311 595 312
f 312 595 599
f 332 632 333
f 333 632 602
f 276 664 285
f 272 694 273
f 273 694 693
f 273 693 274
f 274 693 692
f 274 692 275
f 275 692 691
f 323 635 322
f 322 635 631
f 317 634 318
f 285 664 663
f 285 663 286
f 286 663 690
f 286 690 288
f 288 690 689
f 270 695 272
f 272 695 694
f 264 682 661
f 208 709 707
f 208 707 209
f 209 707 706
f 209 706 216
f 216 706 712
f 243 736 230
f 230 736 735
f 262 682 264
f 207 709 208
f 264 661 265
f 265 661 660
f 265 660 266
f 266 660 681
f 280 674 281
f 281 674 673
f 267 680 268
f 268 680 679
f 230 735 229
f 257 678 258
f 258 678 677
f 258 677 259
f 259 677 699
f 259 699 260
f 260 699 698
f 254 666 253
f 253 666 672
f 268 679 269
f 229 735 723
f 229 723 204
f 204 723 722
f 204 722 205
f 205 722 721
f 256 686 257
f 257 686 678
f 250 667 254
f 211 702 213
f 213 702 717
f 232 734 244
f 244 734 733
f 247 688 248
f 248 688 668
f 248 668 250
f 250 668 667
f 211 701 702
f 254 667 666
f 275 691 276
f 276 691 664
f 337 639 338
f 338 639 640
f 338 640 317
f 317 640 634
f 235 731 730
f 269 679 696
f 269 696 270
f 270 696 695
f 284 683 262
f 262 683 682
f 244 733 234
f 234 733 731
f 234 731 235
f 152 810 153
f 235 730 236
f 236 730 729
f 266 681 267
f 267 681 680
f 237 700 210
f 210 700 701
f 210 701 211
f 502 503 492
f 465 488 489
f 490 491 492
f 485 493 494
f 460 475 476
f 460 476 477
f 497 498 499
f 494 500 485
f 485 500 501
f 485 501 483
f 465 487 488
f 492 503 504
f 460 482 458
f 483 484 485
f 1 436 2
f 2 436 437
f 437 438 2
f 2 438 439
f 2 439 440
f 400 419 420
f 409 410 411
f 412 413 414
f 414 413 415
f 401 369 416
f 416 369 414
f 416 414 417
f 458 459 460
f 460 459 461
f 369 419 400
f 441 442 2
f 400 420 421
f 421 420 422
f 421 422 409
f 409 422 423
f 405 406 407
f 407 406 408
f 484 486 465
f 486 487 465
f 465 473 2
f 524 525 526
f 525 527 492
f 492 527 528
f 492 528 529
f 530 531 532
f 506 514 515
f 515 514 516
f 471 472 465
f 465 472 473
f 497 523 508
f 2 473 474
f 2 474 441
f 462 475 460
f 515 522 497
f 497 522 523
f 477 476 478
f 477 478 479
f 457 480 446
f 1 435 436
f 495 496 497
f 497 496 498
f 2 444 445
f 446 447 448
f 445 449 2
f 2 449 450
f 2 450 3
f 3 450 451
f 429 435 1
f 452 451 453
f 515 516 517
f 517 518 515
f 515 518 519
f 515 519 520
f 520 521 515
f 515 521 522
f 508 509 497
f 497 509 510
f 409 424 425
f 388 398 367
f 351 352 344
f 344 352 353
f 344 353 345
f 354 355 316
f 316 355 356
f 316 356 336
f 341 340 342
f 341 342 343
f 387 398 388
f 409 425 426
f 408 427 407
f 407 427 428
f 407 428 1
f 1 428 429
f 404 418 369
f 369 418 419
f 414 431 417
f 369 403 404
f 390 396 397
f 390 397 391
f 377 384 363
f 363 384 385
f 388 367 399
f 399 367 369
f 399 369 400
f 401 402 369
f 369 402 403
f 426 432 409
f 366 392 360
f 360 392 393
f 343 342 344
f 343 344 345
f 346 347 336
f 347 348 336
f 336 348 349
f 336 349 344
f 442 443 2
f 389 390 391
f 378 379 316
f 316 379 380
f 452 453 446
f 446 453 454
f 446 454 447
f 448 455 446
f 446 455 456
f 446 456 457
f 389 388 390
f 2 443 444
f 460 461 462
f 463 464 465
f 464 466 465
f 465 466 467
f 465 467 468
f 468 469 465
f 3 451 452
f 368 382 369
f 409 432 433
f 409 433 407
f 407 433 434
f 407 434 405
f 409 423 410
f 411 424 409
f 316 380 354
f 354 380 381
f 354 381 373
f 446 480 481
f 369 382 383
f 369 383 372
f 415 430 414
f 414 430 431
f 363 385 316
f 316 385 386
f 316 386 378
f 387 388 389
f 622 623 624
f 485 465 2
f 485 2 414
f 414 2 440
f 414 440 412
f 540 560 553
f 553 560 561
f 617 618 619
f 620 621 622
f 622 621 623
f 484 465 485
f 625 626 600
f 600 626 627
f 607 610 611
f 592 591 612
f 605 628 629
f 605 629 606
f 630 631 622
f 602 632 600
f 553 561 551
f 17 526 92
f 588 589 590
f 591 592 593
f 594 595 596
f 593 597 591
f 591 597 598
f 591 598 594
f 252 363 316
f 252 316 249
f 600 632 633
f 534 562 532
f 532 562 563
f 532 563 13
f 563 564 13
f 13 564 565
f 583 584 581
f 585 586 587
f 14 566 543
f 622 658 630
f 617 650 651
f 617 651 652
f 652 651 653
f 652 653 654
f 654 653 644
f 654 644 655
f 640 600 634
f 641 642 630
f 622 657 658
f 142 569 570
f 630 658 659
f 630 659 641
f 660 661 662
f 663 664 665
f 644 649 646
f 619 650 617
f 600 601 602
f 603 604 605
f 600 627 601
f 600 633 634
f 594 616 617
f 617 616 618
f 142 570 214
f 214 570 252
f 214 252 212
f 212 252 260
f 212 260 277
f 20 14 17
f 17 14 526
f 604 628 605
f 92 526 567
f 92 567 569
f 569 567 568
f 569 568 570
f 570 568 363
f 570 363 252
f 11 569 142
f 497 510 495
f 499 490 550
f 485 505 493
f 478 463 479
f 479 463 465
f 479 465 506
f 506 465 489
f 506 489 507
f 553 554 555
f 555 556 553
f 499 549 490
f 491 511 492
f 492 511 512
f 492 512 502
f 507 513 506
f 506 513 514
f 492 504 485
f 485 504 505
f 8 214 5
f 553 552 554
f 446 481 460
f 460 481 482
f 465 469 470
f 465 470 471
f 550 490 492
f 550 492 541
f 541 492 539
f 541 539 542
f 551 552 553
f 5 214 240
f 14 544 545
f 14 545 526
f 553 556 557
f 553 557 532
f 532 557 558
f 532 558 530
f 542 559 540
f 540 559 560
f 498 549 499
f 540 541 542
f 543 544 14
f 567 485 414
f 567 414 568
f 526 545 546
f 526 546 535
f 536 547 526
f 526 547 548
f 526 548 524
f 492 538 539
f 532 531 533
f 532 533 534
f 249 316 320
f 249 320 304
f 571 572 573
f 574 575 576
f 577 578 579
f 580 581 582
f 363 369 370
f 5 240 227
f 525 492 526
f 526 492 485
f 526 485 567
f 13 565 14
f 14 565 566
f 568 414 369
f 568 369 363
f 395 396 390
f 363 370 361
f 85 92 11
f 11 92 569
f 124 142 8
f 8 142 214
f 526 535 536
f 529 537 492
f 492 537 538
f 140 141 142
f 132 7 129
f 132 129 133
f 9 178 179
f 9 179 180
f 7 134 135
f 7 135 8
f 8 135 136
f 8 136 126
f 137 138 139
f 131 7 132
f 86 123 93
f 124 8 125
f 182 199 200
f 200 201 182
f 182 201 202
f 182 202 166
f 166 202 203
f 166 203 164
f 168 183 166
f 8 174 175
f 8 175 176
f 176 177 8
f 8 177 178
f 8 178 9
f 161 160 162
f 161 162 137
f 180 179 181
f 180 181 182
f 171 192 5
f 166 183 184
f 166 184 185
f 185 184 186
f 171 5 172
f 172 5 173
f 125 8 126
f 127 128 129
f 129 128 130
f 212 237 210
f 164 165 166
f 166 165 167
f 166 167 168
f 169 170 8
f 137 156 129
f 129 156 157
f 234 235 212
f 235 236 212
f 212 236 237
f 137 163 138
f 226 238 214
f 214 238 239
f 215 224 214
f 214 224 225
f 5 241 242
f 5 242 6
f 6 242 243
f 6 243 230
f 129 157 127
f 5 192 193
f 206 207 208
f 206 208 209
f 210 211 212
f 212 211 213
f 212 213 214
f 214 213 215
f 197 198 182
f 182 198 199
f 170 174 8
f 151 158 11
f 11 158 159
f 11 159 12
f 12 159 160
f 12 160 161
f 204 205 206
f 205 207 206
f 137 162 163
f 33 71 72
f 99 120 97
f 106 121 99
f 99 121 122
f 99 122 86
f 86 122 123
f 92 112 113
f 92 113 114
f 70 40 71
f 70 71 33
f 99 119 120
f 33 72 73
f 56 74 25
f 25 74 75
f 80 118 119
f 80 119 99
f 62 76 64
f 33 32 53
f 53 32 77
f 14 37 38
f 88 87 89
f 90 91 92
f 22 46 47
f 22 47 48
f 48 47 49
f 48 49 50
f 39 51 14
f 14 51 52
f 36 37 14
f 53 77 67
f 114 115 92
f 92 115 116
f 92 116 17
f 17 116 117
f 17 117 109
f 111 118 80
f 99 105 106
f 103 107 11
f 11 149 150
f 142 141 143
f 124 144 142
f 10 96 11
f 11 96 102
f 11 102 103
f 90 92 85
f 98 104 99
f 99 104 105
f 146 149 11
f 137 155 156
f 11 107 108
f 11 108 84
f 109 110 17
f 17 110 111
f 17 111 80
f 91 112 92
f 86 100 101
f 86 101 87
f 147 142 148
f 73 78 33
f 33 78 79
f 53 69 54
f 41 40 70
f 142 144 145
f 142 145 140
f 146 11 147
f 147 11 142
f 232 244 233
f 148 142 143
f 133 129 130
f 131 134 7
f 11 150 151
f 139 152 137
f 137 152 153
f 137 153 154
f 154 155 137
f 261 284 262
f 315 339 313
f 313 339 340
f 313 340 341
f 308 329 309
f 310 330 308
f 212 282 246
f 246 282 283
f 246 283 261
f 261 283 284
f 316 338 317
f 276 285 271
f 249 334 335
f 249 335 324
f 287 286 288
f 288 247 287
f 287 247 249
f 287 249 289
f 289 249 290
f 308 331 325
f 252 255 256
f 252 256 257
f 257 258 252
f 252 258 259
f 252 259 260
f 261 262 263
f 233 234 245
f 245 234 212
f 308 330 331
f 291 292 293
f 318 332 316
f 316 332 333
f 316 333 319
f 307 334 249
f 323 249 324
f 308 325 302
f 336 337 316
f 316 337 338
f 291 293 327
f 303 321 302
f 302 321 290
f 302 290 322
f 322 290 249
f 322 249 323
f 370 369 371
f 371 369 372
f 302 325 326
f 302 326 300
f 316 319 320
f 327 293 328
f 327 328 308
f 308 328 329
f 313 314 315
f 316 317 318
f 360 393 390
f 390 393 394
f 390 394 395
f 344 350 351
f 280 281 212
f 212 281 282
f 358 359 360
f 361 362 363
f 359 364 360
f 360 364 365
f 360 365 366
f 367 368 369
f 344 349 350
f 249 305 306
f 354 373 360
f 360 373 374
f 360 374 358
f 362 375 363
f 363 375 376
f 363 376 377
f 336 356 357
f 336 357 346
f 271 274 275
f 265 266 263
f 263 266 267
f 263 267 268
f 268 269 263
f 263 269 270
f 263 270 271
f 254 249 250
f 251 255 252
f 273 274 271
f 4 186 187
f 271 275 276
f 277 278 212
f 212 278 279
f 212 279 280
f 263 262 264
f 263 264 265
f 206 217 218
f 218 217 219
f 214 239 240
f 233 244 234
f 218 231 232
f 218 232 233
f 4 187 5
f 5 187 188
f 5 188 189
f 189 190 5
f 5 190 191
f 5 191 173
f 218 219 220
f 228 241 5
f 5 193 8
f 8 193 194
f 8 194 169
f 181 195 182
f 182 195 196
f 182 196 197
f 185 186 4
f 294 295 296
f 302 301 303
f 271 285 286
f 271 286 287
f 249 306 307
f 308 309 310
f 295 311 296
f 296 311 312
f 296 312 313
f 313 312 314
f 300 301 302
f 292 297 293
f 245 212 246
f 247 248 249
f 249 248 250
f 251 252 253
f 253 252 249
f 253 249 254
f 304 305 249
f 229 206 6
f 220 221 218
f 218 221 222
f 218 222 223
f 271 270 272
f 271 272 273
f 214 225 226
f 227 228 5
f 204 206 229
f 605 606 607
f 229 6 230
f 223 231 218
f 209 216 206
f 206 216 217
f 293 297 298
f 293 298 296
f 296 298 299
f 296 299 294
f 1056 1061 1062
f 1048 1052 575
f 575 1052 1053
f 575 1053 1012
f 1054 1055 1056
f 1057 1058 572
f 572 1058 1059
f 1016 1042 1043
f 1043 1042 1044
f 572 1061 1056
f 972 973 974
f 1056 1062 1054
f 1063 1064 1065
f 1065 1064 1066
f 1064 1067 1068
f 575 1050 1051
f 575 1051 1046
f 1006 1005 1007
f 1006 1007 972
f 1028 1029 1030
f 575 1013 576
f 1016 1019 1020
f 1016 1020 1021
f 975 575 976
f 976 575 977
f 974 978 972
f 972 978 979
f 972 979 980
f 981 982 983
f 972 1007 1008
f 1029 1031 1030
f 985 575 574
f 985 574 986
f 987 988 989
f 989 988 990
f 980 991 972
f 972 991 992
f 937 971 952
f 571 1083 572
f 1063 1077 1064
f 1064 1077 1078
f 1088 1089 1087
f 1087 1089 1090
f 1087 1090 1064
f 1064 1090 1091
f 1064 1091 1066
f 1092 1093 1030
f 571 1082 1083
f 1045 1030 1087
f 1038 1037 1039
f 1038 1039 1014
f 1014 1039 1040
f 1014 1040 1022
f 1021 1041 1016
f 1016 1041 1042
f 1087 1030 1086
f 1087 1086 1088
f 1016 1017 1018
f 972 1008 973
f 999 1009 989
f 989 1009 1010
f 1059 1060 572
f 572 1060 1061
f 578 1011 1000
f 1012 1013 575
f 1014 1015 1016
f 1016 1015 1017
f 1030 1035 1036
f 1018 1019 1016
f 579 1004 1005
f 579 1005 1006
f 572 1083 1084
f 572 1084 1057
f 1085 1086 1030
f 1044 1028 1045
f 1045 1028 1030
f 918 926 907
f 919 918 920
f 919 920 885
f 870 965 966
f 966 967 870
f 917 922 918
f 918 922 923
f 918 923 924
f 924 925 918
f 918 925 926
f 917 918 919
f 897 912 898
f 913 914 907
f 983 993 981
f 984 994 983
f 983 994 995
f 983 995 574
f 574 995 996
f 574 996 986
f 968 969 928
f 950 961 962
f 962 963 950
f 950 963 964
f 950 964 870
f 870 964 965
f 937 954 935
f 936 955 937
f 870 967 968
f 870 968 928
f 983 982 984
f 928 969 970
f 928 970 937
f 937 970 971
f 933 959 934
f 951 960 950
f 914 915 907
f 907 915 916
f 907 916 864
f 1025 1026 1014
f 933 956 957
f 933 957 943
f 944 958 933
f 933 958 959
f 943 944 933
f 942 945 578
f 1022 1023 1014
f 1014 1023 1024
f 1014 1024 1025
f 937 956 933
f 1014 1026 1027
f 1014 1027 1015
f 989 1010 578
f 578 1010 1011
f 1030 1031 1032
f 1030 1032 1033
f 1033 1034 1030
f 1030 1034 1035
f 578 945 946
f 977 575 985
f 989 998 999
f 1000 1001 578
f 578 1001 1002
f 1002 1003 578
f 578 1003 1004
f 578 1004 579
f 972 992 983
f 983 992 993
f 1043 1044 1045
f 578 946 947
f 948 949 950
f 950 949 951
f 952 953 937
f 937 953 954
f 990 997 989
f 989 997 998
f 937 955 956
f 328 652 654
f 600 670 622
f 1122 1126 1123
f 1123 1126 600
f 1123 600 1136
f 1136 600 638
f 975 987 575
f 575 987 989
f 1115 1130 1107
f 1107 1130 1131
f 1112 670 600
f 328 654 329
f 329 654 655
f 329 655 309
f 309 655 643
f 309 643 310
f 343 614 613
f 343 613 341
f 330 645 646
f 350 629 351
f 1138 1140 1112
f 1112 1140 670
f 1139 784 1140
f 1140 784 715
f 600 622 625
f 625 622 624
f 349 608 606
f 349 606 350
f 350 606 629
f 330 646 331
f 870 825 950
f 950 825 844
f 1107 1131 1099
f 1099 1131 1132
f 1099 1132 1097
f 1117 1133 600
f 600 1133 1134
f 600 1134 1112
f 261 669 588
f 870 880 825
f 1056 1138 572
f 572 1138 1112
f 206 708 585
f 206 585 6
f 6 585 587
f 6 587 4
f 4 587 761
f 4 761 185
f 879 880 870
f 261 588 246
f 166 742 766
f 166 766 182
f 182 766 774
f 182 774 180
f 180 774 776
f 180 776 9
f 218 705 708
f 844 821 581
f 331 646 649
f 331 649 325
f 325 649 648
f 325 648 326
f 293 617 652
f 293 652 328
f 572 1112 1095
f 1095 1112 1129
f 855 821 844
f 1138 1139 1140
f 844 581 1139
f 1139 581 784
f 310 643 645
f 310 645 330
f 1140 715 670
f 670 715 589
f 670 589 697
f 697 589 676
f 1056 1075 1076
f 1112 1127 1128
f 1112 1128 1129
f 1116 1117 600
f 1104 1118 572
f 1070 1071 1068
f 1068 1071 1072
f 1068 1072 1073
f 1055 1074 1056
f 1056 1074 1075
f 1111 1127 1112
f 1122 1123 1124
f 1124 1123 1099
f 1064 1078 1067
f 1073 1079 1068
f 1068 1079 1080
f 1068 1080 1081
f 1081 1080 1082
f 1081 1082 571
f 573 1119 1120
f 1046 1047 575
f 575 1047 1048
f 1036 1049 1030
f 1030 1049 1050
f 1030 1050 575
f 576 1013 1037
f 576 1037 1038
f 572 1118 1119
f 572 1119 573
f 1068 1067 1069
f 573 1120 1105
f 1105 1120 1121
f 1105 1121 1106
f 572 1103 1104
f 1105 1106 1107
f 1124 1099 1125
f 1125 1099 1101
f 1116 600 1126
f 1110 1111 1112
f 1097 1098 1099
f 1099 1098 1100
f 1099 1100 1101
f 1096 1102 572
f 572 1102 1103
f 715 586 713
f 713 586 725
f 1107 1106 1108
f 1107 1108 1109
f 1095 1096 572
f 1109 1113 1107
f 1107 1113 1114
f 1107 1114 1115
f 1030 1093 1094
f 1030 1094 1085
f 950 844 1137
f 1137 844 1139
f 1137 1139 1138
f 1112 1135 1110
f 1068 1069 1070
f 1030 1056 1092
f 1092 1056 1076
f 789 782 784
f 784 782 745
f 784 745 715
f 715 745 586
f 1112 1134 1135
f 950 960 961
f 947 948 578
f 578 948 950
f 578 950 989
f 989 950 1137
f 989 1137 1056
f 1056 1137 1138
f 575 989 1030
f 1030 989 1056
f 708 707 709
f 662 695 696
f 662 696 679
f 697 698 670
f 670 698 699
f 670 699 677
f 742 750 751
f 748 752 586
f 703 704 705
f 706 707 708
f 665 695 662
f 704 710 705
f 705 710 711
f 705 711 708
f 693 694 665
f 665 694 695
f 771 772 766
f 766 772 773
f 766 773 774
f 705 734 718
f 666 667 622
f 622 667 668
f 740 741 742
f 743 744 745
f 746 747 586
f 586 747 748
f 741 749 742
f 742 749 750
f 705 733 734
f 774 773 775
f 586 752 753
f 586 753 754
f 744 755 745
f 745 755 756
f 745 756 586
f 586 756 757
f 715 738 739
f 715 739 716
f 803 804 802
f 779 780 745
f 723 735 585
f 585 735 736
f 585 736 586
f 586 736 737
f 586 737 724
f 728 738 715
f 715 727 728
f 700 729 589
f 745 778 779
f 802 804 805
f 802 805 796
f 796 805 806
f 796 806 794
f 807 808 809
f 796 795 797
f 796 797 798
f 798 812 796
f 784 787 788
f 774 775 776
f 777 778 745
f 742 762 763
f 742 763 740
f 745 780 781
f 745 781 743
f 782 783 745
f 784 785 786
f 786 787 784
f 669 682 683
f 766 769 770
f 766 770 771
f 589 729 730
f 589 730 590
f 590 730 731
f 590 731 732
f 732 731 733
f 732 733 705
f 588 683 684
f 589 674 675
f 589 675 676
f 656 689 665
f 665 689 690
f 665 690 663
f 664 691 665
f 665 691 692
f 665 692 693
f 669 683 588
f 670 687 671
f 622 636 620
f 611 637 607
f 607 637 638
f 607 638 639
f 639 638 600
f 639 600 640
f 668 688 656
f 656 688 689
f 596 615 594
f 607 606 608
f 608 609 607
f 607 609 610
f 655 644 643
f 656 657 622
f 612 591 613
f 612 613 605
f 605 613 614
f 605 614 603
f 643 644 645
f 594 615 616
f 594 598 599
f 594 599 595
f 588 684 589
f 589 684 685
f 589 685 673
f 678 686 670
f 670 686 687
f 622 672 666
f 724 725 586
f 714 726 715
f 715 726 727
f 708 711 712
f 708 712 706
f 622 668 656
f 662 661 669
f 670 671 622
f 622 671 672
f 585 722 723
f 673 674 589
f 705 720 703
f 709 721 708
f 677 678 670
f 679 680 662
f 662 680 681
f 662 681 660
f 661 682 669
f 715 716 589
f 645 644 646
f 642 647 630
f 630 647 648
f 630 648 644
f 644 648 649
f 631 635 622
f 622 635 636
f 713 714 715
f 796 812 813
f 589 716 717
f 589 717 702
f 718 719 705
f 705 719 720
f 700 589 701
f 701 589 702
f 708 721 722
f 708 722 585
f 844 854 855
f 897 908 909
f 897 909 904
f 896 910 868
f 868 910 911
f 868 911 897
f 897 911 912
f 890 900 901
f 890 901 902
f 844 853 854
f 890 891 892
f 834 856 581
f 581 856 857
f 581 857 582
f 582 857 858
f 864 906 907
f 899 908 897
f 835 859 836
f 849 860 837
f 809 815 816
f 581 820 799
f 869 875 870
f 870 875 876
f 826 827 828
f 828 827 829
f 828 829 830
f 823 825 831
f 822 832 581
f 581 832 833
f 837 860 861
f 809 816 817
f 902 901 903
f 902 903 904
f 904 903 897
f 882 905 825
f 825 905 906
f 825 906 864
f 890 889 891
f 934 938 932
f 907 926 927
f 907 927 913
f 885 886 865
f 865 886 887
f 865 887 866
f 867 888 865
f 865 888 889
f 865 889 890
f 935 936 937
f 578 941 942
f 874 893 825
f 825 893 894
f 825 894 881
f 868 895 896
f 897 898 899
f 892 900 890
f 883 884 885
f 885 884 886
f 868 931 895
f 837 861 828
f 828 861 862
f 828 862 826
f 844 852 845
f 846 853 844
f 928 929 870
f 870 929 930
f 870 930 868
f 868 930 931
f 581 819 820
f 932 933 934
f 885 920 921
f 885 921 883
f 932 938 939
f 932 939 577
f 577 939 940
f 577 940 578
f 578 940 941
f 821 822 581
f 768 769 766
f 586 757 746
f 754 758 586
f 837 836 838
f 837 838 839
f 840 841 842
f 842 841 828
f 842 828 843
f 843 828 830
f 766 767 768
f 823 824 825
f 837 847 848
f 837 848 849
f 824 850 825
f 825 850 851
f 825 851 844
f 844 851 852
f 581 833 834
f 587 760 761
f 796 813 809
f 809 813 814
f 809 814 807
f 811 815 809
f 802 745 793
f 802 793 803
f 586 758 759
f 586 759 587
f 587 759 760
f 835 836 837
f 761 760 762
f 761 762 742
f 809 808 810
f 809 810 811
f 751 764 742
f 742 764 765
f 742 765 766
f 766 765 767
f 870 878 879
f 865 866 867
f 868 869 870
f 870 871 872
f 873 874 825
f 582 858 835
f 835 858 859
f 870 876 871
f 872 877 870
f 870 877 878
f 863 825 864
f 873 825 880
f 825 881 882
f 840 831 841
f 841 831 825
f 817 816 818
f 817 818 580
f 580 818 819
f 580 819 581
f 799 800 581
f 784 584 790
f 784 790 785
f 783 791 745
f 745 791 792
f 745 792 793
f 794 795 796
f 844 845 846
f 839 847 837
f 22 44 45
f 581 800 801
f 581 801 583
f 775 777 776
f 776 777 745
f 776 745 802
f 784 788 789
f 581 584 784
f 841 825 863
