# Procedural three-strand visual sleeve; dimensions in metres.
v 0.0035000 0.0000000 0.0000000
v 0.0022562 0.0017119 0.0000000
v 0.0002438 0.0010580 0.0000000
v 0.0002438 -0.0010580 0.0000000
v 0.0022562 -0.0017119 0.0000000
v 0.0030043 0.0011998 0.0043646
v 0.0017606 0.0029117 0.0043646
v -0.0002519 0.0022578 0.0043646
v -0.0002519 0.0001418 0.0043646
v 0.0017606 -0.0005121 0.0043646
v 0.0018064 0.0017000 0.0087292
v 0.0005626 0.0034119 0.0087292
v -0.0014499 0.0027580 0.0087292
v -0.0014499 0.0006420 0.0087292
v 0.0005626 -0.0000119 0.0087292
v 0.0006047 0.0012088 0.0130937
v -0.0006391 0.0029207 0.0130937
v -0.0026515 0.0022668 0.0130937
v -0.0026515 0.0001508 0.0130937
v -0.0006391 -0.0005031 0.0130937
v 0.0001000 0.0000127 0.0174583
v -0.0011437 0.0017246 0.0174583
v -0.0031562 0.0010707 0.0174583
v -0.0031562 -0.0010453 0.0174583
v -0.0011437 -0.0016992 0.0174583
v 0.0005867 -0.0011908 0.0218229
v -0.0006570 0.0005211 0.0218229
v -0.0026695 -0.0001328 0.0218229
v -0.0026695 -0.0022488 0.0218229
v -0.0006570 -0.0029027 0.0218229
v 0.0017809 -0.0016999 0.0261875
v 0.0005372 0.0000120 0.0261875
v -0.0014753 -0.0006419 0.0261875
v -0.0014753 -0.0027579 0.0261875
v 0.0005372 -0.0034118 0.0261875
v 0.0029862 -0.0012177 0.0305521
v 0.0017425 0.0004942 0.0305521
v -0.0002700 -0.0001597 0.0305521
v -0.0002700 -0.0022757 0.0305521
v 0.0017425 -0.0029296 0.0305521
v 0.0034998 -0.0000254 0.0349167
v 0.0022560 0.0016865 0.0349167
v 0.0002436 0.0010326 0.0349167
v 0.0002436 -0.0010834 0.0349167
v 0.0022560 -0.0017373 0.0349167
v 0.0030221 0.0011817 0.0392812
v 0.0017784 0.0028936 0.0392812
v -0.0002341 0.0022397 0.0392812
v -0.0002341 0.0001237 0.0392812
v 0.0017784 -0.0005302 0.0392812
v 0.0018318 0.0016997 0.0436458
v 0.0005880 0.0034116 0.0436458
v -0.0014244 0.0027577 0.0436458
v -0.0014244 0.0006417 0.0436458
v 0.0005880 -0.0000122 0.0436458
v 0.0006229 0.0012266 0.0480104
v -0.0006209 0.0029385 0.0480104
v -0.0026333 0.0022846 0.0480104
v -0.0026333 0.0001685 0.0480104
v -0.0006209 -0.0004853 0.0480104
v 0.0001004 0.0000381 0.0523750
v -0.0011433 0.0017500 0.0523750
v -0.0031558 0.0010962 0.0523750
v -0.0031558 -0.0010199 0.0523750
v -0.0011433 -0.0016738 0.0523750
v 0.0005691 -0.0011725 0.0567396
v -0.0006747 0.0005394 0.0567396
v -0.0026872 -0.0001145 0.0567396
v -0.0026872 -0.0022305 0.0567396
v -0.0006747 -0.0028844 0.0567396
v 0.0017555 -0.0016994 0.0611042
v 0.0005117 0.0000125 0.0611042
v -0.0015007 -0.0006414 0.0611042
v -0.0015007 -0.0027574 0.0611042
v 0.0005117 -0.0034113 0.0611042
v 0.0029679 -0.0012353 0.0654687
v 0.0017241 0.0004766 0.0654687
v -0.0002883 -0.0001773 0.0654687
v -0.0002883 -0.0022933 0.0654687
v 0.0017241 -0.0029472 0.0654687
v 0.0034992 -0.0000509 0.0698333
v 0.0022555 0.0016610 0.0698333
v 0.0002430 0.0010072 0.0698333
v 0.0002430 -0.0011089 0.0698333
v 0.0022555 -0.0017628 0.0698333
v 0.0030397 0.0011633 0.0741979
v 0.0017959 0.0028752 0.0741979
v -0.0002165 0.0022213 0.0741979
v -0.0002165 0.0001053 0.0741979
v 0.0017959 -0.0005486 0.0741979
v 0.0018572 0.0016990 0.0785625
v 0.0006134 0.0034109 0.0785625
v -0.0013990 0.0027571 0.0785625
v -0.0013990 0.0006410 0.0785625
v 0.0006134 -0.0000129 0.0785625
v 0.0006414 0.0012440 0.0829271
v -0.0006024 0.0029559 0.0829271
v -0.0026149 0.0023020 0.0829271
v -0.0026149 0.0001860 0.0829271
v -0.0006024 -0.0004679 0.0829271
v 0.0001012 0.0000636 0.0872917
v -0.0011426 0.0017755 0.0872917
v -0.0031550 0.0011216 0.0872917
v -0.0031550 -0.0009944 0.0872917
v -0.0011426 -0.0016483 0.0872917
v 0.0005517 -0.0011540 0.0916562
v -0.0006921 0.0005579 0.0916562
v -0.0027046 -0.0000959 0.0916562
v -0.0027046 -0.0022120 0.0916562
v -0.0006921 -0.0028659 0.0916562
v 0.0017301 -0.0016986 0.0960208
v 0.0004863 0.0000133 0.0960208
v -0.0015261 -0.0006405 0.0960208
v -0.0015261 -0.0027566 0.0960208
v 0.0004863 -0.0034105 0.0960208
v 0.0029493 -0.0012527 0.1003854
v 0.0017055 0.0004592 0.1003854
v -0.0003069 -0.0001946 0.1003854
v -0.0003069 -0.0023107 0.1003854
v 0.0017055 -0.0029646 0.1003854
v 0.0034983 -0.0000763 0.1047500
v 0.0022545 0.0016356 0.1047500
v 0.0002421 0.0009817 0.1047500
v 0.0002421 -0.0011343 0.1047500
v 0.0022545 -0.0017882 0.1047500
v 0.0030569 0.0011446 0.1091146
v 0.0018132 0.0028565 0.1091146
v -0.0001993 0.0022026 0.1091146
v -0.0001993 0.0000866 0.1091146
v 0.0018132 -0.0005673 0.1091146
v 0.0018826 0.0016980 0.1134792
v 0.0006389 0.0034099 0.1134792
v -0.0013736 0.0027560 0.1134792
v -0.0013736 0.0006400 0.1134792
v 0.0006389 -0.0000139 0.1134792
v 0.0006601 0.0012612 0.1178437
v -0.0005837 0.0029731 0.1178437
v -0.0025961 0.0023192 0.1178437
v -0.0025961 0.0002032 0.1178437
v -0.0005837 -0.0004507 0.1178437
v 0.0001023 0.0000890 0.1222083
v -0.0011414 0.0018009 0.1222083
v -0.0031539 0.0011470 0.1222083
v -0.0031539 -0.0009690 0.1222083
v -0.0011414 -0.0016229 0.1222083
v 0.0005345 -0.0011352 0.1265729
v -0.0007092 0.0005767 0.1265729
v -0.0027217 -0.0000771 0.1265729
v -0.0027217 -0.0021932 0.1265729
v -0.0007092 -0.0028471 0.1265729
v 0.0017047 -0.0016973 0.1309375
v 0.0004609 0.0000146 0.1309375
v -0.0015516 -0.0006393 0.1309375
v -0.0015516 -0.0027553 0.1309375
v 0.0004609 -0.0034092 0.1309375
v 0.0029304 -0.0012697 0.1353021
v 0.0016866 0.0004422 0.1353021
v -0.0003258 -0.0002117 0.1353021
v -0.0003258 -0.0023277 0.1353021
v 0.0016866 -0.0029816 0.1353021
v 0.0034970 -0.0001017 0.1396667
v 0.0022532 0.0016102 0.1396667
v 0.0002407 0.0009563 0.1396667
v 0.0002407 -0.0011597 0.1396667
v 0.0022532 -0.0018136 0.1396667
v 0.0030739 0.0011257 0.1440312
v 0.0018302 0.0028376 0.1440312
v -0.0001823 0.0021837 0.1440312
v -0.0001823 0.0000676 0.1440312
v 0.0018302 -0.0005862 0.1440312
v 0.0019080 0.0016966 0.1483958
v 0.0006642 0.0034085 0.1483958
v -0.0013482 0.0027546 0.1483958
v -0.0013482 0.0006386 0.1483958
v 0.0006642 -0.0000153 0.1483958
v 0.0006791 0.0012781 0.1527604
v -0.0005647 0.0029900 0.1527604
v -0.0025771 0.0023361 0.1527604
v -0.0025771 0.0002201 0.1527604
v -0.0005647 -0.0004338 0.1527604
v 0.0001039 0.0001144 0.1571250
v -0.0011399 0.0018263 0.1571250
v -0.0031524 0.0011724 0.1571250
v -0.0031524 -0.0009437 0.1571250
v -0.0011399 -0.0015975 0.1571250
v 0.0005177 -0.0011161 0.1614896
v -0.0007261 0.0005958 0.1614896
v -0.0027385 -0.0000581 0.1614896
v -0.0027385 -0.0021741 0.1614896
v -0.0007261 -0.0028280 0.1614896
v 0.0016793 -0.0016957 0.1658542
v 0.0004355 0.0000162 0.1658542
v -0.0015769 -0.0006377 0.1658542
v -0.0015769 -0.0027537 0.1658542
v 0.0004355 -0.0034076 0.1658542
v 0.0029113 -0.0012865 0.1702187
v 0.0016675 0.0004254 0.1702187
v -0.0003449 -0.0002285 0.1702187
v -0.0003449 -0.0023445 0.1702187
v 0.0016675 -0.0029984 0.1702187
v 0.0034952 -0.0001270 0.1745833
v 0.0022515 0.0015849 0.1745833
v 0.0002390 0.0009310 0.1745833
v 0.0002390 -0.0011851 0.1745833
v 0.0022515 -0.0018389 0.1745833
v 0.0030906 0.0011065 0.1789479
v 0.0018469 0.0028184 0.1789479
v -0.0001656 0.0021645 0.1789479
v -0.0001656 0.0000485 0.1789479
v 0.0018469 -0.0006054 0.1789479
v 0.0019334 0.0016948 0.1833125
v 0.0006896 0.0034067 0.1833125
v -0.0013229 0.0027528 0.1833125
v -0.0013229 0.0006367 0.1833125
v 0.0006896 -0.0000171 0.1833125
v 0.0006984 0.0012948 0.1876771
v -0.0005454 0.0030067 0.1876771
v -0.0025579 0.0023528 0.1876771
v -0.0025579 0.0002367 0.1876771
v -0.0005454 -0.0004171 0.1876771
v 0.0001058 0.0001397 0.1920417
v -0.0011380 0.0018516 0.1920417
v -0.0031505 0.0011977 0.1920417
v -0.0031505 -0.0009183 0.1920417
v -0.0011380 -0.0015722 0.1920417
v 0.0005011 -0.0010968 0.1964062
v -0.0007426 0.0006151 0.1964062
v -0.0027551 -0.0000388 0.1964062
v -0.0027551 -0.0021548 0.1964062
v -0.0007426 -0.0028087 0.1964062
v 0.0016539 -0.0016937 0.2007708
v 0.0004102 0.0000182 0.2007708
v -0.0016023 -0.0006357 0.2007708
v -0.0016023 -0.0027517 0.2007708
v 0.0004102 -0.0034056 0.2007708
v 0.0028919 -0.0013030 0.2051354
v 0.0016482 0.0004089 0.2051354
v -0.0003643 -0.0002449 0.2051354
v -0.0003643 -0.0023610 0.2051354
v 0.0016482 -0.0030149 0.2051354
v 0.0034932 -0.0001524 0.2095000
v 0.0022494 0.0015595 0.2095000
v 0.0002369 0.0009056 0.2095000
v 0.0002369 -0.0012104 0.2095000
v 0.0022494 -0.0018643 0.2095000
v 0.0031070 0.0010870 0.2138646
v 0.0018633 0.0027989 0.2138646
v -0.0001492 0.0021451 0.2138646
v -0.0001492 0.0000290 0.2138646
v 0.0018633 -0.0006249 0.2138646
v 0.0019587 0.0016926 0.2182292
v 0.0007149 0.0034045 0.2182292
v -0.0012975 0.0027506 0.2182292
v -0.0012975 0.0006346 0.2182292
v 0.0007149 -0.0000193 0.2182292
v 0.0007178 0.0013111 0.2225937
v -0.0005259 0.0030230 0.2225937
v -0.0025384 0.0023691 0.2225937
v -0.0025384 0.0002531 0.2225937
v -0.0005259 -0.0004008 0.2225937
v 0.0001080 0.0001650 0.2269583
v -0.0011357 0.0018769 0.2269583
v -0.0031482 0.0012231 0.2269583
v -0.0031482 -0.0008930 0.2269583
v -0.0011357 -0.0015469 0.2269583
v 0.0004849 -0.0010772 0.2313229
v -0.0007589 0.0006347 0.2313229
v -0.0027714 -0.0000192 0.2313229
v -0.0027714 -0.0021353 0.2313229
v -0.0007589 -0.0027891 0.2313229
v 0.0016286 -0.0016913 0.2356875
v 0.0003849 0.0000206 0.2356875
v -0.0016276 -0.0006333 0.2356875
v -0.0016276 -0.0027494 0.2356875
v 0.0003849 -0.0034032 0.2356875
v 0.0028723 -0.0013191 0.2400521
v 0.0016285 0.0003928 0.2400521
v -0.0003839 -0.0002611 0.2400521
v -0.0003839 -0.0023772 0.2400521
v 0.0016285 -0.0030310 0.2400521
v 0.0034907 -0.0001777 0.2444167
v 0.0022469 0.0015342 0.2444167
v 0.0002345 0.0008803 0.2444167
v 0.0002345 -0.0012357 0.2444167
v 0.0022469 -0.0018896 0.2444167
v 0.0031231 0.0010674 0.2487812
v 0.0018794 0.0027793 0.2487812
v -0.0001331 0.0021254 0.2487812
v -0.0001331 0.0000094 0.2487812
v 0.0018794 -0.0006445 0.2487812
v 0.0019840 0.0016900 0.2531458
v 0.0007403 0.0034019 0.2531458
v -0.0012722 0.0027480 0.2531458
v -0.0012722 0.0006320 0.2531458
v 0.0007403 -0.0000219 0.2531458
v 0.0007376 0.0013271 0.2575104
v -0.0005062 0.0030390 0.2575104
v -0.0025186 0.0023851 0.2575104
v -0.0025186 0.0002691 0.2575104
v -0.0005062 -0.0003848 0.2575104
v 0.0001107 0.0001903 0.2618750
v -0.0011331 0.0019022 0.2618750
v -0.0031455 0.0012484 0.2618750
v -0.0031455 -0.0008677 0.2618750
v -0.0011331 -0.0015216 0.2618750
v 0.0004689 -0.0010574 0.2662396
v -0.0007749 0.0006545 0.2662396
v -0.0027873 0.0000006 0.2662396
v -0.0027873 -0.0021155 0.2662396
v -0.0007749 -0.0027693 0.2662396
v 0.0016033 -0.0016886 0.2706042
v 0.0003596 0.0000233 0.2706042
v -0.0016529 -0.0006306 0.2706042
v -0.0016529 -0.0027466 0.2706042
v 0.0003596 -0.0034005 0.2706042
v 0.0028525 -0.0013350 0.2749687
v 0.0016087 0.0003769 0.2749687
v -0.0004038 -0.0002770 0.2749687
v -0.0004038 -0.0023931 0.2749687
v 0.0016087 -0.0030469 0.2749687
v 0.0034878 -0.0002030 0.2793333
v 0.0022441 0.0015089 0.2793333
v 0.0002316 0.0008550 0.2793333
v 0.0002316 -0.0012610 0.2793333
v 0.0022441 -0.0019149 0.2793333
v 0.0009500 0.0014722 0.0000000
v -0.0002938 0.0031841 0.0000000
v -0.0023062 0.0025303 0.0000000
v -0.0023062 0.0004142 0.0000000
v -0.0002938 -0.0002397 0.0000000
v 0.0001588 0.0004431 0.0043646
v -0.0010850 0.0021550 0.0043646
v -0.0030975 0.0015011 0.0043646
v -0.0030975 -0.0006150 0.0043646
v -0.0010850 -0.0012688 0.0043646
v 0.0003246 -0.0008445 0.0087292
v -0.0009192 0.0008674 0.0087292
v -0.0029316 0.0002135 0.0087292
v -0.0029316 -0.0019025 0.0087292
v -0.0009192 -0.0025564 0.0087292
v 0.0013508 -0.0016396 0.0130937
v 0.0001070 0.0000723 0.0130937
v -0.0019054 -0.0005816 0.0130937
v -0.0019054 -0.0026976 0.0130937
v 0.0001070 -0.0033515 0.0130937
v 0.0026390 -0.0014786 0.0174583
v 0.0013952 0.0002333 0.0174583
v -0.0006173 -0.0004205 0.0174583
v -0.0006173 -0.0025366 0.0174583
v 0.0013952 -0.0031905 0.0174583
v 0.0034379 -0.0004553 0.0218229
v 0.0021941 0.0012566 0.0218229
v 0.0001817 0.0006027 0.0218229
v 0.0001817 -0.0015133 0.0218229
v 0.0021941 -0.0021672 0.0218229
v 0.0032817 0.0008334 0.0261875
v 0.0020379 0.0025453 0.0261875
v 0.0000255 0.0018914 0.0261875
v 0.0000255 -0.0002246 0.0261875
v 0.0020379 -0.0008785 0.0261875
v 0.0022614 0.0016362 0.0305521
v 0.0010177 0.0033481 0.0305521
v -0.0009948 0.0026942 0.0305521
v -0.0009948 0.0005782 0.0305521
v 0.0010177 -0.0000757 0.0305521
v 0.0009721 0.0014848 0.0349167
v -0.0002717 0.0031967 0.0349167
v -0.0022841 0.0025428 0.0349167
v -0.0022841 0.0004268 0.0349167
v -0.0002717 -0.0002271 0.0349167
v 0.0001656 0.0004676 0.0392812
v -0.0010782 0.0021795 0.0392812
v -0.0030907 0.0015256 0.0392812
v -0.0030907 -0.0005904 0.0392812
v -0.0010782 -0.0012443 0.0392812
v 0.0003121 -0.0008223 0.0436458
v -0.0009316 0.0008896 0.0436458
v -0.0029441 0.0002357 0.0436458
v -0.0029441 -0.0018803 0.0436458
v -0.0009316 -0.0025342 0.0436458
v 0.0013263 -0.0016327 0.0480104
v 0.0000826 0.0000792 0.0480104
v -0.0019299 -0.0005747 0.0480104
v -0.0019299 -0.0026907 0.0480104
v 0.0000826 -0.0033446 0.0480104
v 0.0026168 -0.0014909 0.0523750
v 0.0013730 0.0002210 0.0523750
v -0.0006395 -0.0004329 0.0523750
v -0.0006395 -0.0025490 0.0523750
v 0.0013730 -0.0032028 0.0523750
v 0.0034309 -0.0004798 0.0567396
v 0.0021871 0.0012321 0.0567396
v 0.0001747 0.0005782 0.0567396
v 0.0001747 -0.0015378 0.0567396
v 0.0021871 -0.0021917 0.0567396
v 0.0032940 0.0008112 0.0611042
v 0.0020502 0.0025231 0.0611042
v 0.0000378 0.0018692 0.0611042
v 0.0000378 -0.0002468 0.0611042
v 0.0020502 -0.0009007 0.0611042
v 0.0022859 0.0016291 0.0654687
v 0.0010421 0.0033410 0.0654687
v -0.0009704 0.0026871 0.0654687
v -0.0009704 0.0005711 0.0654687
v 0.0010421 -0.0000828 0.0654687
v 0.0009944 0.0014970 0.0698333
v -0.0002493 0.0032089 0.0698333
v -0.0022618 0.0025550 0.0698333
v -0.0022618 0.0004390 0.0698333
v -0.0002493 -0.0002149 0.0698333
v 0.0001727 0.0004920 0.0741979
v -0.0010710 0.0022039 0.0741979
v -0.0030835 0.0015500 0.0741979
v -0.0030835 -0.0005661 0.0741979
v -0.0010710 -0.0012199 0.0741979
v 0.0003000 -0.0008000 0.0785625
v -0.0009438 0.0009119 0.0785625
v -0.0029562 0.0002580 0.0785625
v -0.0029562 -0.0018580 0.0785625
v -0.0009438 -0.0025119 0.0785625
v 0.0013020 -0.0016254 0.0829271
v 0.0000582 0.0000865 0.0829271
v -0.0019543 -0.0005674 0.0829271
v -0.0019543 -0.0026834 0.0829271
v 0.0000582 -0.0033373 0.0829271
v 0.0025944 -0.0015030 0.0872917
v 0.0013506 0.0002089 0.0872917
v -0.0006619 -0.0004450 0.0872917
v -0.0006619 -0.0025610 0.0872917
v 0.0013506 -0.0032149 0.0872917
v 0.0034235 -0.0005041 0.0916562
v 0.0021798 0.0012078 0.0916562
v 0.0001673 0.0005539 0.0916562
v 0.0001673 -0.0015621 0.0916562
v 0.0021798 -0.0022160 0.0916562
v 0.0033060 0.0007887 0.0960208
v 0.0020622 0.0025006 0.0960208
v 0.0000497 0.0018467 0.0960208
v 0.0000497 -0.0002693 0.0960208
v 0.0020622 -0.0009232 0.0960208
v 0.0023102 0.0016216 0.1003854
v 0.0010664 0.0033335 0.1003854
v -0.0009460 0.0026797 0.1003854
v -0.0009460 0.0005636 0.1003854
v 0.0010664 -0.0000903 0.1003854
v 0.0010169 0.0015089 0.1047500
v -0.0002269 0.0032208 0.1047500
v -0.0022393 0.0025669 0.1047500
v -0.0022393 0.0004509 0.1047500
v -0.0002269 -0.0002030 0.1047500
v 0.0001803 0.0005163 0.1091146
v -0.0010635 0.0022282 0.1091146
v -0.0030759 0.0015743 0.1091146
v -0.0030759 -0.0005418 0.1091146
v -0.0010635 -0.0011957 0.1091146
v 0.0002882 -0.0007774 0.1134792
v -0.0009556 0.0009345 0.1134792
v -0.0029680 0.0002806 0.1134792
v -0.0029680 -0.0018355 0.1134792
v -0.0009556 -0.0024893 0.1134792
v 0.0012777 -0.0016178 0.1178437
v 0.0000339 0.0000941 0.1178437
v -0.0019785 -0.0005598 0.1178437
v -0.0019785 -0.0026758 0.1178437
v 0.0000339 -0.0033297 0.1178437
v 0.0025718 -0.0015147 0.1222083
v 0.0013280 0.0001972 0.1222083
v -0.0006844 -0.0004567 0.1222083
v -0.0006844 -0.0025727 0.1222083
v 0.0013280 -0.0032266 0.1222083
v 0.0034158 -0.0005284 0.1265729
v 0.0021720 0.0011836 0.1265729
v 0.0001596 0.0005297 0.1265729
v 0.0001596 -0.0015864 0.1265729
v 0.0021720 -0.0022403 0.1265729
v 0.0033176 0.0007661 0.1309375
v 0.0020738 0.0024780 0.1309375
v 0.0000614 0.0018241 0.1309375
v 0.0000614 -0.0002919 0.1309375
v 0.0020738 -0.0009458 0.1309375
v 0.0023344 0.0016138 0.1353021
v 0.0010906 0.0033257 0.1353021
v -0.0009218 0.0026718 0.1353021
v -0.0009218 0.0005558 0.1353021
v 0.0010906 -0.0000981 0.1353021
v 0.0010396 0.0015204 0.1396667
v -0.0002042 0.0032323 0.1396667
v -0.0022167 0.0025785 0.1396667
v -0.0022167 0.0004624 0.1396667
v -0.0002042 -0.0001915 0.1396667
v 0.0001882 0.0005404 0.1440312
v -0.0010556 0.0022523 0.1440312
v -0.0030680 0.0015984 0.1440312
v -0.0030680 -0.0005176 0.1440312
v -0.0010556 -0.0011715 0.1440312
v 0.0002767 -0.0007547 0.1483958
v -0.0009670 0.0009572 0.1483958
v -0.0029795 0.0003033 0.1483958
v -0.0029795 -0.0018128 0.1483958
v -0.0009670 -0.0024666 0.1483958
v 0.0012536 -0.0016098 0.1527604
v 0.0000098 0.0001021 0.1527604
v -0.0020027 -0.0005518 0.1527604
v -0.0020027 -0.0026678 0.1527604
v 0.0000098 -0.0033217 0.1527604
v 0.0025490 -0.0015261 0.1571250
v 0.0013053 0.0001858 0.1571250
v -0.0007072 -0.0004681 0.1571250
v -0.0007072 -0.0025841 0.1571250
v 0.0013053 -0.0032380 0.1571250
v 0.0034077 -0.0005525 0.1614896
v 0.0021640 0.0011594 0.1614896
v 0.0001515 0.0005055 0.1614896
v 0.0001515 -0.0016105 0.1614896
v 0.0021640 -0.0022644 0.1614896
v 0.0033289 0.0007433 0.1658542
v 0.0020851 0.0024552 0.1658542
v 0.0000726 0.0018013 0.1658542
v 0.0000726 -0.0003147 0.1658542
v 0.0020851 -0.0009686 0.1658542
v 0.0023585 0.0016056 0.1702187
v 0.0011147 0.0033176 0.1702187
v -0.0008978 0.0026637 0.1702187
v -0.0008978 0.0005476 0.1702187
v 0.0011147 -0.0001063 0.1702187
v 0.0010624 0.0015316 0.1745833
v -0.0001814 0.0032435 0.1745833
v -0.0021938 0.0025897 0.1745833
v -0.0021938 0.0004736 0.1745833
v -0.0001814 -0.0001803 0.1745833
v 0.0001965 0.0005645 0.1789479
v -0.0010473 0.0022764 0.1789479
v -0.0030598 0.0016225 0.1789479
v -0.0030598 -0.0004935 0.1789479
v -0.0010473 -0.0011474 0.1789479
v 0.0002656 -0.0007319 0.1833125
v -0.0009782 0.0009800 0.1833125
v -0.0029906 0.0003261 0.1833125
v -0.0029906 -0.0017899 0.1833125
v -0.0009782 -0.0024438 0.1833125
v 0.0012295 -0.0016014 0.1876771
v -0.0000142 0.0001105 0.1876771
v -0.0020267 -0.0005434 0.1876771
v -0.0020267 -0.0026594 0.1876771
v -0.0000142 -0.0033133 0.1876771
v 0.0025261 -0.0015371 0.1920417
v 0.0012824 0.0001748 0.1920417
v -0.0007301 -0.0004791 0.1920417
v -0.0007301 -0.0025951 0.1920417
v 0.0012824 -0.0032490 0.1920417
v 0.0033993 -0.0005765 0.1964062
v 0.0021555 0.0011354 0.1964062
v 0.0001431 0.0004816 0.1964062
v 0.0001431 -0.0016345 0.1964062
v 0.0021555 -0.0022884 0.1964062
v 0.0033398 0.0007204 0.2007708
v 0.0020961 0.0024323 0.2007708
v 0.0000836 0.0017784 0.2007708
v 0.0000836 -0.0003376 0.2007708
v 0.0020961 -0.0009915 0.2007708
v 0.0023824 0.0015971 0.2051354
v 0.0011387 0.0033090 0.2051354
v -0.0008738 0.0026551 0.2051354
v -0.0008738 0.0005391 0.2051354
v 0.0011387 -0.0001148 0.2051354
v 0.0010854 0.0015425 0.2095000
v -0.0001584 0.0032544 0.2095000
v -0.0021708 0.0026005 0.2095000
v -0.0021708 0.0004845 0.2095000
v -0.0001584 -0.0001694 0.2095000
v 0.0002051 0.0005884 0.2138646
v -0.0010387 0.0023003 0.2138646
v -0.0030512 0.0016464 0.2138646
v -0.0030512 -0.0004696 0.2138646
v -0.0010387 -0.0011235 0.2138646
v 0.0002548 -0.0007088 0.2182292
v -0.0009889 0.0010031 0.2182292
v -0.0030014 0.0003492 0.2182292
v -0.0030014 -0.0017668 0.2182292
v -0.0009889 -0.0024207 0.2182292
v 0.0012056 -0.0015927 0.2225937
v -0.0000381 0.0001192 0.2225937
v -0.0020506 -0.0005347 0.2225937
v -0.0020506 -0.0026507 0.2225937
v -0.0000381 -0.0033046 0.2225937
v 0.0025030 -0.0015478 0.2269583
v 0.0012593 0.0001641 0.2269583
v -0.0007532 -0.0004898 0.2269583
v -0.0007532 -0.0026058 0.2269583
v 0.0012593 -0.0032597 0.2269583
v 0.0033905 -0.0006003 0.2313229
v 0.0021467 0.0011116 0.2313229
v 0.0001342 0.0004577 0.2313229
v 0.0001342 -0.0016583 0.2313229
v 0.0021467 -0.0023122 0.2313229
v 0.0033504 0.0006973 0.2356875
v 0.0021067 0.0024092 0.2356875
v 0.0000942 0.0017553 0.2356875
v 0.0000942 -0.0003608 0.2356875
v 0.0021067 -0.0010146 0.2356875
v 0.0024063 0.0015882 0.2400521
v 0.0011625 0.0033001 0.2400521
v -0.0008500 0.0026462 0.2400521
v -0.0008500 0.0005302 0.2400521
v 0.0011625 -0.0001237 0.2400521
v 0.0011085 0.0015530 0.2444167
v -0.0001352 0.0032649 0.2444167
v -0.0021477 0.0026110 0.2444167
v -0.0021477 0.0004950 0.2444167
v -0.0001352 -0.0001589 0.2444167
v 0.0002141 0.0006122 0.2487812
v -0.0010297 0.0023241 0.2487812
v -0.0030422 0.0016702 0.2487812
v -0.0030422 -0.0004458 0.2487812
v -0.0010297 -0.0010997 0.2487812
v 0.0002444 -0.0006856 0.2531458
v -0.0009994 0.0010263 0.2531458
v -0.0030118 0.0003724 0.2531458
v -0.0030118 -0.0017437 0.2531458
v -0.0009994 -0.0023975 0.2531458
v 0.0011819 -0.0015836 0.2575104
v -0.0000619 0.0001283 0.2575104
v -0.0020744 -0.0005256 0.2575104
v -0.0020744 -0.0026417 0.2575104
v -0.0000619 -0.0032955 0.2575104
v 0.0024798 -0.0015582 0.2618750
v 0.0012360 0.0001537 0.2618750
v -0.0007764 -0.0005001 0.2618750
v -0.0007764 -0.0026162 0.2618750
v 0.0012360 -0.0032701 0.2618750
v 0.0033813 -0.0006240 0.2662396
v 0.0021376 0.0010879 0.2662396
v 0.0001251 0.0004340 0.2662396
v 0.0001251 -0.0016821 0.2662396
v 0.0021376 -0.0023359 0.2662396
v 0.0033607 0.0006740 0.2706042
v 0.0021169 0.0023859 0.2706042
v 0.0001045 0.0017320 0.2706042
v 0.0001045 -0.0003840 0.2706042
v 0.0021169 -0.0010379 0.2706042
v 0.0024299 0.0015790 0.2749687
v 0.0011862 0.0032909 0.2749687
v -0.0008263 0.0026370 0.2749687
v -0.0008263 0.0005210 0.2749687
v 0.0011862 -0.0001329 0.2749687
v 0.0011319 0.0015632 0.2793333
v -0.0001119 0.0032751 0.2793333
v -0.0021244 0.0026212 0.2793333
v -0.0021244 0.0005052 0.2793333
v -0.0001119 -0.0001487 0.2793333
v 0.0009500 -0.0014722 0.0000000
v -0.0002938 0.0002397 0.0000000
v -0.0023062 -0.0004142 0.0000000
v -0.0023062 -0.0025303 0.0000000
v -0.0002938 -0.0031841 0.0000000
v 0.0022369 -0.0016429 0.0043646
v 0.0009932 0.0000690 0.0043646
v -0.0010193 -0.0005849 0.0043646
v -0.0010193 -0.0027009 0.0043646
v 0.0009932 -0.0033548 0.0043646
v 0.0032691 -0.0008555 0.0087292
v 0.0020253 0.0008564 0.0087292
v 0.0000128 0.0002025 0.0087292
v 0.0000128 -0.0019135 0.0087292
v 0.0020253 -0.0025674 0.0087292
v 0.0034445 0.0004308 0.0130937
v 0.0022007 0.0021427 0.0130937
v 0.0001883 0.0014888 0.0130937
v 0.0001883 -0.0006272 0.0130937
v 0.0022007 -0.0012811 0.0130937
v 0.0026610 0.0014658 0.0174583
v 0.0014172 0.0031777 0.0174583
v -0.0005952 0.0025239 0.0174583
v -0.0005952 0.0004078 0.0174583
v 0.0014172 -0.0002461 0.0174583
v 0.0013754 0.0016461 0.0218229
v 0.0001316 0.0033580 0.0218229
v -0.0018809 0.0027041 0.0218229
v -0.0018809 0.0005881 0.0218229
v 0.0001316 -0.0000658 0.0218229
v 0.0003374 0.0008665 0.0261875
v -0.0009064 0.0025784 0.0261875
v -0.0029188 0.0019245 0.0261875
v -0.0029188 -0.0001915 0.0261875
v -0.0009064 -0.0008454 0.0261875
v 0.0001523 -0.0004185 0.0305521
v -0.0010915 0.0012934 0.0305521
v -0.0031039 0.0006396 0.0305521
v -0.0031039 -0.0014765 0.0305521
v -0.0010915 -0.0021304 0.0305521
v 0.0009281 -0.0014594 0.0349167
v -0.0003157 0.0002525 0.0349167
v -0.0023282 -0.0004013 0.0349167
v -0.0023282 -0.0025174 0.0349167
v -0.0003157 -0.0031713 0.0349167
v 0.0022123 -0.0016492 0.0392812
v 0.0009685 0.0000627 0.0392812
v -0.0010439 -0.0005912 0.0392812
v -0.0010439 -0.0027073 0.0392812
v 0.0009685 -0.0033611 0.0392812
v 0.0032561 -0.0008774 0.0436458
v 0.0020123 0.0008345 0.0436458
v -0.0000001 0.0001806 0.0436458
v -0.0000001 -0.0019354 0.0436458
v 0.0020123 -0.0025893 0.0436458
v 0.0034508 0.0004061 0.0480104
v 0.0022070 0.0021180 0.0480104
v 0.0001945 0.0014641 0.0480104
v 0.0001945 -0.0006519 0.0480104
v 0.0022070 -0.0013058 0.0480104
v 0.0026828 0.0014528 0.0523750
v 0.0014391 0.0031647 0.0523750
v -0.0005734 0.0025108 0.0523750
v -0.0005734 0.0003948 0.0523750
v 0.0014391 -0.0002591 0.0523750
v 0.0014001 0.0016523 0.0567396
v 0.0001563 0.0033642 0.0567396
v -0.0018562 0.0027103 0.0567396
v -0.0018562 0.0005943 0.0567396
v 0.0001563 -0.0000596 0.0567396
v 0.0003505 0.0008882 0.0611042
v -0.0008933 0.0026001 0.0611042
v -0.0029057 0.0019463 0.0611042
v -0.0029057 -0.0001698 0.0611042
v -0.0008933 -0.0008237 0.0611042
v 0.0001462 -0.0003938 0.0654687
v -0.0010975 0.0013181 0.0654687
v -0.0031100 0.0006642 0.0654687
v -0.0031100 -0.0014518 0.0654687
v -0.0010975 -0.0021057 0.0654687
v 0.0009063 -0.0014462 0.0698333
v -0.0003374 0.0002657 0.0698333
v -0.0023499 -0.0003881 0.0698333
v -0.0023499 -0.0025042 0.0698333
v -0.0003374 -0.0031581 0.0698333
v 0.0021876 -0.0016552 0.0741979
v 0.0009438 0.0000567 0.0741979
v -0.0010687 -0.0005972 0.0741979
v -0.0010687 -0.0027132 0.0741979
v 0.0009438 -0.0033671 0.0741979
v 0.0032428 -0.0008991 0.0785625
v 0.0019990 0.0008128 0.0785625
v -0.0000134 0.0001589 0.0785625
v -0.0000134 -0.0019571 0.0785625
v 0.0019990 -0.0026110 0.0785625
v 0.0034567 0.0003814 0.0829271
v 0.0022129 0.0020933 0.0829271
v 0.0002004 0.0014394 0.0829271
v 0.0002004 -0.0006766 0.0829271
v 0.0022129 -0.0013305 0.0829271
v 0.0027045 0.0014394 0.0872917
v 0.0014607 0.0031513 0.0872917
v -0.0005518 0.0024974 0.0872917
v -0.0005518 0.0003814 0.0872917
v 0.0014607 -0.0002725 0.0872917
v 0.0014248 0.0016581 0.0916562
v 0.0001810 0.0033700 0.0916562
v -0.0018314 0.0027161 0.0916562
v -0.0018314 0.0006001 0.0916562
v 0.0001810 -0.0000538 0.0916562
v 0.0003640 0.0009098 0.0960208
v -0.0008798 0.0026217 0.0960208
v -0.0028923 0.0019678 0.0960208
v -0.0028923 -0.0001482 0.0960208
v -0.0008798 -0.0008021 0.0960208
v 0.0001405 -0.0003690 0.1003854
v -0.0011032 0.0013429 0.1003854
v -0.0031157 0.0006890 0.1003854
v -0.0031157 -0.0014270 0.1003854
v -0.0011032 -0.0020809 0.1003854
v 0.0008848 -0.0014326 0.1047500
v -0.0003590 0.0002793 0.1047500
v -0.0023714 -0.0003746 0.1047500
v -0.0023714 -0.0024906 0.1047500
v -0.0003590 -0.0031445 0.1047500
v 0.0021628 -0.0016608 0.1091146
v 0.0009190 0.0000511 0.1091146
v -0.0010935 -0.0006028 0.1091146
v -0.0010935 -0.0027189 0.1091146
v 0.0009190 -0.0033727 0.1091146
v 0.0032292 -0.0009205 0.1134792
v 0.0019854 0.0007914 0.1134792
v -0.0000270 0.0001375 0.1134792
v -0.0000270 -0.0019786 0.1134792
v 0.0019854 -0.0026324 0.1134792
v 0.0034622 0.0003566 0.1178437
v 0.0022184 0.0020685 0.1178437
v 0.0002060 0.0014146 0.1178437
v 0.0002060 -0.0007015 0.1178437
v 0.0022184 -0.0013553 0.1178437
v 0.0027259 0.0014257 0.1222083
v 0.0014821 0.0031376 0.1222083
v -0.0005303 0.0024838 0.1222083
v -0.0005303 0.0003677 0.1222083
v 0.0014821 -0.0002862 0.1222083
v 0.0014497 0.0016635 0.1265729
v 0.0002059 0.0033754 0.1265729
v -0.0018066 0.0027215 0.1265729
v -0.0018066 0.0006055 0.1265729
v 0.0002059 -0.0000484 0.1265729
v 0.0003777 0.0009312 0.1309375
v -0.0008660 0.0026431 0.1309375
v -0.0028785 0.0019892 0.1309375
v -0.0028785 -0.0001268 0.1309375
v -0.0008660 -0.0007807 0.1309375
v 0.0001352 -0.0003441 0.1353021
v -0.0011086 0.0013678 0.1353021
v -0.0031210 0.0007139 0.1353021
v -0.0031210 -0.0014021 0.1353021
v -0.0011086 -0.0020560 0.1353021
v 0.0008635 -0.0014188 0.1396667
v -0.0003803 0.0002931 0.1396667
v -0.0023928 -0.0003608 0.1396667
v -0.0023928 -0.0024768 0.1396667
v -0.0003803 -0.0031307 0.1396667
v 0.0021379 -0.0016661 0.1440312
v 0.0008941 0.0000458 0.1440312
v -0.0011183 -0.0006081 0.1440312
v -0.0011183 -0.0027241 0.1440312
v 0.0008941 -0.0033780 0.1440312
v 0.0032153 -0.0009418 0.1483958
v 0.0019715 0.0007701 0.1483958
v -0.0000410 0.0001162 0.1483958
v -0.0000410 -0.0019998 0.1483958
v 0.0019715 -0.0026537 0.1483958
v 0.0034673 0.0003317 0.1527604
v 0.0022236 0.0020436 0.1527604
v 0.0002111 0.0013897 0.1527604
v 0.0002111 -0.0007264 0.1527604
v 0.0022236 -0.0013802 0.1527604
v 0.0027471 0.0014117 0.1571250
v 0.0015033 0.0031236 0.1571250
v -0.0005091 0.0024697 0.1571250
v -0.0005091 0.0003537 0.1571250
v 0.0015033 -0.0003002 0.1571250
v 0.0014746 0.0016686 0.1614896
v 0.0002308 0.0033805 0.1614896
v -0.0017816 0.0027266 0.1614896
v -0.0017816 0.0006106 0.1614896
v 0.0002308 -0.0000433 0.1614896
v 0.0003918 0.0009524 0.1658542
v -0.0008519 0.0026643 0.1658542
v -0.0028644 0.0020104 0.1658542
v -0.0028644 -0.0001056 0.1658542
v -0.0008519 -0.0007595 0.1658542
v 0.0001302 -0.0003192 0.1702187
v -0.0011135 0.0013927 0.1702187
v -0.0031260 0.0007388 0.1702187
v -0.0031260 -0.0013772 0.1702187
v -0.0011135 -0.0020311 0.1702187
v 0.0008424 -0.0014046 0.1745833
v -0.0004014 0.0003073 0.1745833
v -0.0024139 -0.0003466 0.1745833
v -0.0024139 -0.0024626 0.1745833
v -0.0004014 -0.0031165 0.1745833
v 0.0021129 -0.0016710 0.1789479
v 0.0008692 0.0000410 0.1789479
v -0.0011433 -0.0006129 0.1789479
v -0.0011433 -0.0027290 0.1789479
v 0.0008692 -0.0033829 0.1789479
v 0.0032010 -0.0009629 0.1833125
v 0.0019572 0.0007490 0.1833125
v -0.0000552 0.0000951 0.1833125
v -0.0000552 -0.0020209 0.1833125
v 0.0019572 -0.0026748 0.1833125
v 0.0034721 0.0003067 0.1876771
v 0.0022283 0.0020186 0.1876771
v 0.0002159 0.0013647 0.1876771
v 0.0002159 -0.0007513 0.1876771
v 0.0022283 -0.0014052 0.1876771
v 0.0027681 0.0013974 0.1920417
v 0.0015244 0.0031093 0.1920417
v -0.0004881 0.0024554 0.1920417
v -0.0004881 0.0003394 0.1920417
v 0.0015244 -0.0003145 0.1920417
v 0.0014996 0.0016732 0.1964062
v 0.0002558 0.0033851 0.1964062
v -0.0017566 0.0027313 0.1964062
v -0.0017566 0.0006152 0.1964062
v 0.0002558 -0.0000387 0.1964062
v 0.0004062 0.0009733 0.2007708
v -0.0008375 0.0026852 0.2007708
v -0.0028500 0.0020314 0.2007708
v -0.0028500 -0.0000847 0.2007708
v -0.0008375 -0.0007386 0.2007708
v 0.0001256 -0.0002942 0.2051354
v -0.0011181 0.0014177 0.2051354
v -0.0031306 0.0007639 0.2051354
v -0.0031306 -0.0013522 0.2051354
v -0.0011181 -0.0020061 0.2051354
v 0.0008215 -0.0013901 0.2095000
v -0.0004223 0.0003218 0.2095000
v -0.0024348 -0.0003321 0.2095000
v -0.0024348 -0.0024481 0.2095000
v -0.0004223 -0.0031020 0.2095000
v 0.0020879 -0.0016754 0.2138646
v 0.0008441 0.0000365 0.2138646
v -0.0011683 -0.0006174 0.2138646
v -0.0011683 -0.0027335 0.2138646
v 0.0008441 -0.0033873 0.2138646
v 0.0031865 -0.0009837 0.2182292
v 0.0019427 0.0007282 0.2182292
v -0.0000698 0.0000743 0.2182292
v -0.0000698 -0.0020418 0.2182292
v 0.0019427 -0.0026956 0.2182292
v 0.0034765 0.0002816 0.2225937
v 0.0022327 0.0019935 0.2225937
v 0.0002203 0.0013396 0.2225937
v 0.0002203 -0.0007764 0.2225937
v 0.0022327 -0.0014303 0.2225937
v 0.0027889 0.0013828 0.2269583
v 0.0015452 0.0030947 0.2269583
v -0.0004673 0.0024408 0.2269583
v -0.0004673 0.0003248 0.2269583
v 0.0015452 -0.0003291 0.2269583
v 0.0015246 0.0016776 0.2313229
v 0.0002809 0.0033895 0.2313229
v -0.0017316 0.0027356 0.2313229
v -0.0017316 0.0006195 0.2313229
v 0.0002809 -0.0000343 0.2313229
v 0.0004209 0.0009941 0.2356875
v -0.0008228 0.0027060 0.2356875
v -0.0028353 0.0020521 0.2356875
v -0.0028353 -0.0000639 0.2356875
v -0.0008228 -0.0007178 0.2356875
v 0.0001214 -0.0002691 0.2400521
v -0.0011223 0.0014428 0.2400521
v -0.0031348 0.0007889 0.2400521
v -0.0031348 -0.0013271 0.2400521
v -0.0011223 -0.0019810 0.2400521
v 0.0008008 -0.0013753 0.2444167
v -0.0004430 0.0003366 0.2444167
v -0.0024555 -0.0003173 0.2444167
v -0.0024555 -0.0024333 0.2444167
v -0.0004430 -0.0030872 0.2444167
v 0.0020628 -0.0016796 0.2487812
v 0.0008190 0.0000323 0.2487812
v -0.0011934 -0.0006216 0.2487812
v -0.0011934 -0.0027376 0.2487812
v 0.0008190 -0.0033915 0.2487812
v 0.0031716 -0.0010044 0.2531458
v 0.0019278 0.0007075 0.2531458
v -0.0000846 0.0000536 0.2531458
v -0.0000846 -0.0020624 0.2531458
v 0.0019278 -0.0027163 0.2531458
v 0.0034805 0.0002565 0.2575104
v 0.0022368 0.0019684 0.2575104
v 0.0002243 0.0013145 0.2575104
v 0.0002243 -0.0008015 0.2575104
v 0.0022368 -0.0014554 0.2575104
v 0.0028095 0.0013678 0.2618750
v 0.0015657 0.0030797 0.2618750
v -0.0004467 0.0024258 0.2618750
v -0.0004467 0.0003098 0.2618750
v 0.0015657 -0.0003441 0.2618750
v 0.0015498 0.0016815 0.2662396
v 0.0003060 0.0033934 0.2662396
v -0.0017065 0.0027395 0.2662396
v -0.0017065 0.0006235 0.2662396
v 0.0003060 -0.0000304 0.2662396
v 0.0004360 0.0010146 0.2706042
v -0.0008078 0.0027265 0.2706042
v -0.0028203 0.0020726 0.2706042
v -0.0028203 -0.0000434 0.2706042
v -0.0008078 -0.0006973 0.2706042
v 0.0001176 -0.0002439 0.2749687
v -0.0011262 0.0014680 0.2749687
v -0.0031386 0.0008141 0.2749687
v -0.0031386 -0.0013020 0.2749687
v -0.0011262 -0.0019558 0.2749687
v 0.0007803 -0.0013602 0.2793333
v -0.0004635 0.0003517 0.2793333
v -0.0024759 -0.0003022 0.2793333
v -0.0024759 -0.0024182 0.2793333
v -0.0004635 -0.0030721 0.2793333
f 1 2 7
f 1 7 6
f 2 3 8
f 2 8 7
f 3 4 9
f 3 9 8
f 4 5 10
f 4 10 9
f 5 1 6
f 5 6 10
f 6 7 12
f 6 12 11
f 7 8 13
f 7 13 12
f 8 9 14
f 8 14 13
f 9 10 15
f 9 15 14
f 10 6 11
f 10 11 15
f 11 12 17
f 11 17 16
f 12 13 18
f 12 18 17
f 13 14 19
f 13 19 18
f 14 15 20
f 14 20 19
f 15 11 16
f 15 16 20
f 16 17 22
f 16 22 21
f 17 18 23
f 17 23 22
f 18 19 24
f 18 24 23
f 19 20 25
f 19 25 24
f 20 16 21
f 20 21 25
f 21 22 27
f 21 27 26
f 22 23 28
f 22 28 27
f 23 24 29
f 23 29 28
f 24 25 30
f 24 30 29
f 25 21 26
f 25 26 30
f 26 27 32
f 26 32 31
f 27 28 33
f 27 33 32
f 28 29 34
f 28 34 33
f 29 30 35
f 29 35 34
f 30 26 31
f 30 31 35
f 31 32 37
f 31 37 36
f 32 33 38
f 32 38 37
f 33 34 39
f 33 39 38
f 34 35 40
f 34 40 39
f 35 31 36
f 35 36 40
f 36 37 42
f 36 42 41
f 37 38 43
f 37 43 42
f 38 39 44
f 38 44 43
f 39 40 45
f 39 45 44
f 40 36 41
f 40 41 45
f 41 42 47
f 41 47 46
f 42 43 48
f 42 48 47
f 43 44 49
f 43 49 48
f 44 45 50
f 44 50 49
f 45 41 46
f 45 46 50
f 46 47 52
f 46 52 51
f 47 48 53
f 47 53 52
f 48 49 54
f 48 54 53
f 49 50 55
f 49 55 54
f 50 46 51
f 50 51 55
f 51 52 57
f 51 57 56
f 52 53 58
f 52 58 57
f 53 54 59
f 53 59 58
f 54 55 60
f 54 60 59
f 55 51 56
f 55 56 60
f 56 57 62
f 56 62 61
f 57 58 63
f 57 63 62
f 58 59 64
f 58 64 63
f 59 60 65
f 59 65 64
f 60 56 61
f 60 61 65
f 61 62 67
f 61 67 66
f 62 63 68
f 62 68 67
f 63 64 69
f 63 69 68
f 64 65 70
f 64 70 69
f 65 61 66
f 65 66 70
f 66 67 72
f 66 72 71
f 67 68 73
f 67 73 72
f 68 69 74
f 68 74 73
f 69 70 75
f 69 75 74
f 70 66 71
f 70 71 75
f 71 72 77
f 71 77 76
f 72 73 78
f 72 78 77
f 73 74 79
f 73 79 78
f 74 75 80
f 74 80 79
f 75 71 76
f 75 76 80
f 76 77 82
f 76 82 81
f 77 78 83
f 77 83 82
f 78 79 84
f 78 84 83
f 79 80 85
f 79 85 84
f 80 76 81
f 80 81 85
f 81 82 87
f 81 87 86
f 82 83 88
f 82 88 87
f 83 84 89
f 83 89 88
f 84 85 90
f 84 90 89
f 85 81 86
f 85 86 90
f 86 87 92
f 86 92 91
f 87 88 93
f 87 93 92
f 88 89 94
f 88 94 93
f 89 90 95
f 89 95 94
f 90 86 91
f 90 91 95
f 91 92 97
f 91 97 96
f 92 93 98
f 92 98 97
f 93 94 99
f 93 99 98
f 94 95 100
f 94 100 99
f 95 91 96
f 95 96 100
f 96 97 102
f 96 102 101
f 97 98 103
f 97 103 102
f 98 99 104
f 98 104 103
f 99 100 105
f 99 105 104
f 100 96 101
f 100 101 105
f 101 102 107
f 101 107 106
f 102 103 108
f 102 108 107
f 103 104 109
f 103 109 108
f 104 105 110
f 104 110 109
f 105 101 106
f 105 106 110
f 106 107 112
f 106 112 111
f 107 108 113
f 107 113 112
f 108 109 114
f 108 114 113
f 109 110 115
f 109 115 114
f 110 106 111
f 110 111 115
f 111 112 117
f 111 117 116
f 112 113 118
f 112 118 117
f 113 114 119
f 113 119 118
f 114 115 120
f 114 120 119
f 115 111 116
f 115 116 120
f 116 117 122
f 116 122 121
f 117 118 123
f 117 123 122
f 118 119 124
f 118 124 123
f 119 120 125
f 119 125 124
f 120 116 121
f 120 121 125
f 121 122 127
f 121 127 126
f 122 123 128
f 122 128 127
f 123 124 129
f 123 129 128
f 124 125 130
f 124 130 129
f 125 121 126
f 125 126 130
f 126 127 132
f 126 132 131
f 127 128 133
f 127 133 132
f 128 129 134
f 128 134 133
f 129 130 135
f 129 135 134
f 130 126 131
f 130 131 135
f 131 132 137
f 131 137 136
f 132 133 138
f 132 138 137
f 133 134 139
f 133 139 138
f 134 135 140
f 134 140 139
f 135 131 136
f 135 136 140
f 136 137 142
f 136 142 141
f 137 138 143
f 137 143 142
f 138 139 144
f 138 144 143
f 139 140 145
f 139 145 144
f 140 136 141
f 140 141 145
f 141 142 147
f 141 147 146
f 142 143 148
f 142 148 147
f 143 144 149
f 143 149 148
f 144 145 150
f 144 150 149
f 145 141 146
f 145 146 150
f 146 147 152
f 146 152 151
f 147 148 153
f 147 153 152
f 148 149 154
f 148 154 153
f 149 150 155
f 149 155 154
f 150 146 151
f 150 151 155
f 151 152 157
f 151 157 156
f 152 153 158
f 152 158 157
f 153 154 159
f 153 159 158
f 154 155 160
f 154 160 159
f 155 151 156
f 155 156 160
f 156 157 162
f 156 162 161
f 157 158 163
f 157 163 162
f 158 159 164
f 158 164 163
f 159 160 165
f 159 165 164
f 160 156 161
f 160 161 165
f 161 162 167
f 161 167 166
f 162 163 168
f 162 168 167
f 163 164 169
f 163 169 168
f 164 165 170
f 164 170 169
f 165 161 166
f 165 166 170
f 166 167 172
f 166 172 171
f 167 168 173
f 167 173 172
f 168 169 174
f 168 174 173
f 169 170 175
f 169 175 174
f 170 166 171
f 170 171 175
f 171 172 177
f 171 177 176
f 172 173 178
f 172 178 177
f 173 174 179
f 173 179 178
f 174 175 180
f 174 180 179
f 175 171 176
f 175 176 180
f 176 177 182
f 176 182 181
f 177 178 183
f 177 183 182
f 178 179 184
f 178 184 183
f 179 180 185
f 179 185 184
f 180 176 181
f 180 181 185
f 181 182 187
f 181 187 186
f 182 183 188
f 182 188 187
f 183 184 189
f 183 189 188
f 184 185 190
f 184 190 189
f 185 181 186
f 185 186 190
f 186 187 192
f 186 192 191
f 187 188 193
f 187 193 192
f 188 189 194
f 188 194 193
f 189 190 195
f 189 195 194
f 190 186 191
f 190 191 195
f 191 192 197
f 191 197 196
f 192 193 198
f 192 198 197
f 193 194 199
f 193 199 198
f 194 195 200
f 194 200 199
f 195 191 196
f 195 196 200
f 196 197 202
f 196 202 201
f 197 198 203
f 197 203 202
f 198 199 204
f 198 204 203
f 199 200 205
f 199 205 204
f 200 196 201
f 200 201 205
f 201 202 207
f 201 207 206
f 202 203 208
f 202 208 207
f 203 204 209
f 203 209 208
f 204 205 210
f 204 210 209
f 205 201 206
f 205 206 210
f 206 207 212
f 206 212 211
f 207 208 213
f 207 213 212
f 208 209 214
f 208 214 213
f 209 210 215
f 209 215 214
f 210 206 211
f 210 211 215
f 211 212 217
f 211 217 216
f 212 213 218
f 212 218 217
f 213 214 219
f 213 219 218
f 214 215 220
f 214 220 219
f 215 211 216
f 215 216 220
f 216 217 222
f 216 222 221
f 217 218 223
f 217 223 222
f 218 219 224
f 218 224 223
f 219 220 225
f 219 225 224
f 220 216 221
f 220 221 225
f 221 222 227
f 221 227 226
f 222 223 228
f 222 228 227
f 223 224 229
f 223 229 228
f 224 225 230
f 224 230 229
f 225 221 226
f 225 226 230
f 226 227 232
f 226 232 231
f 227 228 233
f 227 233 232
f 228 229 234
f 228 234 233
f 229 230 235
f 229 235 234
f 230 226 231
f 230 231 235
f 231 232 237
f 231 237 236
f 232 233 238
f 232 238 237
f 233 234 239
f 233 239 238
f 234 235 240
f 234 240 239
f 235 231 236
f 235 236 240
f 236 237 242
f 236 242 241
f 237 238 243
f 237 243 242
f 238 239 244
f 238 244 243
f 239 240 245
f 239 245 244
f 240 236 241
f 240 241 245
f 241 242 247
f 241 247 246
f 242 243 248
f 242 248 247
f 243 244 249
f 243 249 248
f 244 245 250
f 244 250 249
f 245 241 246
f 245 246 250
f 246 247 252
f 246 252 251
f 247 248 253
f 247 253 252
f 248 249 254
f 248 254 253
f 249 250 255
f 249 255 254
f 250 246 251
f 250 251 255
f 251 252 257
f 251 257 256
f 252 253 258
f 252 258 257
f 253 254 259
f 253 259 258
f 254 255 260
f 254 260 259
f 255 251 256
f 255 256 260
f 256 257 262
f 256 262 261
f 257 258 263
f 257 263 262
f 258 259 264
f 258 264 263
f 259 260 265
f 259 265 264
f 260 256 261
f 260 261 265
f 261 262 267
f 261 267 266
f 262 263 268
f 262 268 267
f 263 264 269
f 263 269 268
f 264 265 270
f 264 270 269
f 265 261 266
f 265 266 270
f 266 267 272
f 266 272 271
f 267 268 273
f 267 273 272
f 268 269 274
f 268 274 273
f 269 270 275
f 269 275 274
f 270 266 271
f 270 271 275
f 271 272 277
f 271 277 276
f 272 273 278
f 272 278 277
f 273 274 279
f 273 279 278
f 274 275 280
f 274 280 279
f 275 271 276
f 275 276 280
f 276 277 282
f 276 282 281
f 277 278 283
f 277 283 282
f 278 279 284
f 278 284 283
f 279 280 285
f 279 285 284
f 280 276 281
f 280 281 285
f 281 282 287
f 281 287 286
f 282 283 288
f 282 288 287
f 283 284 289
f 283 289 288
f 284 285 290
f 284 290 289
f 285 281 286
f 285 286 290
f 286 287 292
f 286 292 291
f 287 288 293
f 287 293 292
f 288 289 294
f 288 294 293
f 289 290 295
f 289 295 294
f 290 286 291
f 290 291 295
f 291 292 297
f 291 297 296
f 292 293 298
f 292 298 297
f 293 294 299
f 293 299 298
f 294 295 300
f 294 300 299
f 295 291 296
f 295 296 300
f 296 297 302
f 296 302 301
f 297 298 303
f 297 303 302
f 298 299 304
f 298 304 303
f 299 300 305
f 299 305 304
f 300 296 301
f 300 301 305
f 301 302 307
f 301 307 306
f 302 303 308
f 302 308 307
f 303 304 309
f 303 309 308
f 304 305 310
f 304 310 309
f 305 301 306
f 305 306 310
f 306 307 312
f 306 312 311
f 307 308 313
f 307 313 312
f 308 309 314
f 308 314 313
f 309 310 315
f 309 315 314
f 310 306 311
f 310 311 315
f 311 312 317
f 311 317 316
f 312 313 318
f 312 318 317
f 313 314 319
f 313 319 318
f 314 315 320
f 314 320 319
f 315 311 316
f 315 316 320
f 316 317 322
f 316 322 321
f 317 318 323
f 317 323 322
f 318 319 324
f 318 324 323
f 319 320 325
f 319 325 324
f 320 316 321
f 320 321 325
f 326 327 332
f 326 332 331
f 327 328 333
f 327 333 332
f 328 329 334
f 328 334 333
f 329 330 335
f 329 335 334
f 330 326 331
f 330 331 335
f 331 332 337
f 331 337 336
f 332 333 338
f 332 338 337
f 333 334 339
f 333 339 338
f 334 335 340
f 334 340 339
f 335 331 336
f 335 336 340
f 336 337 342
f 336 342 341
f 337 338 343
f 337 343 342
f 338 339 344
f 338 344 343
f 339 340 345
f 339 345 344
f 340 336 341
f 340 341 345
f 341 342 347
f 341 347 346
f 342 343 348
f 342 348 347
f 343 344 349
f 343 349 348
f 344 345 350
f 344 350 349
f 345 341 346
f 345 346 350
f 346 347 352
f 346 352 351
f 347 348 353
f 347 353 352
f 348 349 354
f 348 354 353
f 349 350 355
f 349 355 354
f 350 346 351
f 350 351 355
f 351 352 357
f 351 357 356
f 352 353 358
f 352 358 357
f 353 354 359
f 353 359 358
f 354 355 360
f 354 360 359
f 355 351 356
f 355 356 360
f 356 357 362
f 356 362 361
f 357 358 363
f 357 363 362
f 358 359 364
f 358 364 363
f 359 360 365
f 359 365 364
f 360 356 361
f 360 361 365
f 361 362 367
f 361 367 366
f 362 363 368
f 362 368 367
f 363 364 369
f 363 369 368
f 364 365 370
f 364 370 369
f 365 361 366
f 365 366 370
f 366 367 372
f 366 372 371
f 367 368 373
f 367 373 372
f 368 369 374
f 368 374 373
f 369 370 375
f 369 375 374
f 370 366 371
f 370 371 375
f 371 372 377
f 371 377 376
f 372 373 378
f 372 378 377
f 373 374 379
f 373 379 378
f 374 375 380
f 374 380 379
f 375 371 376
f 375 376 380
f 376 377 382
f 376 382 381
f 377 378 383
f 377 383 382
f 378 379 384
f 378 384 383
f 379 380 385
f 379 385 384
f 380 376 381
f 380 381 385
f 381 382 387
f 381 387 386
f 382 383 388
f 382 388 387
f 383 384 389
f 383 389 388
f 384 385 390
f 384 390 389
f 385 381 386
f 385 386 390
f 386 387 392
f 386 392 391
f 387 388 393
f 387 393 392
f 388 389 394
f 388 394 393
f 389 390 395
f 389 395 394
f 390 386 391
f 390 391 395
f 391 392 397
f 391 397 396
f 392 393 398
f 392 398 397
f 393 394 399
f 393 399 398
f 394 395 400
f 394 400 399
f 395 391 396
f 395 396 400
f 396 397 402
f 396 402 401
f 397 398 403
f 397 403 402
f 398 399 404
f 398 404 403
f 399 400 405
f 399 405 404
f 400 396 401
f 400 401 405
f 401 402 407
f 401 407 406
f 402 403 408
f 402 408 407
f 403 404 409
f 403 409 408
f 404 405 410
f 404 410 409
f 405 401 406
f 405 406 410
f 406 407 412
f 406 412 411
f 407 408 413
f 407 413 412
f 408 409 414
f 408 414 413
f 409 410 415
f 409 415 414
f 410 406 411
f 410 411 415
f 411 412 417
f 411 417 416
f 412 413 418
f 412 418 417
f 413 414 419
f 413 419 418
f 414 415 420
f 414 420 419
f 415 411 416
f 415 416 420
f 416 417 422
f 416 422 421
f 417 418 423
f 417 423 422
f 418 419 424
f 418 424 423
f 419 420 425
f 419 425 424
f 420 416 421
f 420 421 425
f 421 422 427
f 421 427 426
f 422 423 428
f 422 428 427
f 423 424 429
f 423 429 428
f 424 425 430
f 424 430 429
f 425 421 426
f 425 426 430
f 426 427 432
f 426 432 431
f 427 428 433
f 427 433 432
f 428 429 434
f 428 434 433
f 429 430 435
f 429 435 434
f 430 426 431
f 430 431 435
f 431 432 437
f 431 437 436
f 432 433 438
f 432 438 437
f 433 434 439
f 433 439 438
f 434 435 440
f 434 440 439
f 435 431 436
f 435 436 440
f 436 437 442
f 436 442 441
f 437 438 443
f 437 443 442
f 438 439 444
f 438 444 443
f 439 440 445
f 439 445 444
f 440 436 441
f 440 441 445
f 441 442 447
f 441 447 446
f 442 443 448
f 442 448 447
f 443 444 449
f 443 449 448
f 444 445 450
f 444 450 449
f 445 441 446
f 445 446 450
f 446 447 452
f 446 452 451
f 447 448 453
f 447 453 452
f 448 449 454
f 448 454 453
f 449 450 455
f 449 455 454
f 450 446 451
f 450 451 455
f 451 452 457
f 451 457 456
f 452 453 458
f 452 458 457
f 453 454 459
f 453 459 458
f 454 455 460
f 454 460 459
f 455 451 456
f 455 456 460
f 456 457 462
f 456 462 461
f 457 458 463
f 457 463 462
f 458 459 464
f 458 464 463
f 459 460 465
f 459 465 464
f 460 456 461
f 460 461 465
f 461 462 467
f 461 467 466
f 462 463 468
f 462 468 467
f 463 464 469
f 463 469 468
f 464 465 470
f 464 470 469
f 465 461 466
f 465 466 470
f 466 467 472
f 466 472 471
f 467 468 473
f 467 473 472
f 468 469 474
f 468 474 473
f 469 470 475
f 469 475 474
f 470 466 471
f 470 471 475
f 471 472 477
f 471 477 476
f 472 473 478
f 472 478 477
f 473 474 479
f 473 479 478
f 474 475 480
f 474 480 479
f 475 471 476
f 475 476 480
f 476 477 482
f 476 482 481
f 477 478 483
f 477 483 482
f 478 479 484
f 478 484 483
f 479 480 485
f 479 485 484
f 480 476 481
f 480 481 485
f 481 482 487
f 481 487 486
f 482 483 488
f 482 488 487
f 483 484 489
f 483 489 488
f 484 485 490
f 484 490 489
f 485 481 486
f 485 486 490
f 486 487 492
f 486 492 491
f 487 488 493
f 487 493 492
f 488 489 494
f 488 494 493
f 489 490 495
f 489 495 494
f 490 486 491
f 490 491 495
f 491 492 497
f 491 497 496
f 492 493 498
f 492 498 497
f 493 494 499
f 493 499 498
f 494 495 500
f 494 500 499
f 495 491 496
f 495 496 500
f 496 497 502
f 496 502 501
f 497 498 503
f 497 503 502
f 498 499 504
f 498 504 503
f 499 500 505
f 499 505 504
f 500 496 501
f 500 501 505
f 501 502 507
f 501 507 506
f 502 503 508
f 502 508 507
f 503 504 509
f 503 509 508
f 504 505 510
f 504 510 509
f 505 501 506
f 505 506 510
f 506 507 512
f 506 512 511
f 507 508 513
f 507 513 512
f 508 509 514
f 508 514 513
f 509 510 515
f 509 515 514
f 510 506 511
f 510 511 515
f 511 512 517
f 511 517 516
f 512 513 518
f 512 518 517
f 513 514 519
f 513 519 518
f 514 515 520
f 514 520 519
f 515 511 516
f 515 516 520
f 516 517 522
f 516 522 521
f 517 518 523
f 517 523 522
f 518 519 524
f 518 524 523
f 519 520 525
f 519 525 524
f 520 516 521
f 520 521 525
f 521 522 527
f 521 527 526
f 522 523 528
f 522 528 527
f 523 524 529
f 523 529 528
f 524 525 530
f 524 530 529
f 525 521 526
f 525 526 530
f 526 527 532
f 526 532 531
f 527 528 533
f 527 533 532
f 528 529 534
f 528 534 533
f 529 530 535
f 529 535 534
f 530 526 531
f 530 531 535
f 531 532 537
f 531 537 536
f 532 533 538
f 532 538 537
f 533 534 539
f 533 539 538
f 534 535 540
f 534 540 539
f 535 531 536
f 535 536 540
f 536 537 542
f 536 542 541
f 537 538 543
f 537 543 542
f 538 539 544
f 538 544 543
f 539 540 545
f 539 545 544
f 540 536 541
f 540 541 545
f 541 542 547
f 541 547 546
f 542 543 548
f 542 548 547
f 543 544 549
f 543 549 548
f 544 545 550
f 544 550 549
f 545 541 546
f 545 546 550
f 546 547 552
f 546 552 551
f 547 548 553
f 547 553 552
f 548 549 554
f 548 554 553
f 549 550 555
f 549 555 554
f 550 546 551
f 550 551 555
f 551 552 557
f 551 557 556
f 552 553 558
f 552 558 557
f 553 554 559
f 553 559 558
f 554 555 560
f 554 560 559
f 555 551 556
f 555 556 560
f 556 557 562
f 556 562 561
f 557 558 563
f 557 563 562
f 558 559 564
f 558 564 563
f 559 560 565
f 559 565 564
f 560 556 561
f 560 561 565
f 561 562 567
f 561 567 566
f 562 563 568
f 562 568 567
f 563 564 569
f 563 569 568
f 564 565 570
f 564 570 569
f 565 561 566
f 565 566 570
f 566 567 572
f 566 572 571
f 567 568 573
f 567 573 572
f 568 569 574
f 568 574 573
f 569 570 575
f 569 575 574
f 570 566 571
f 570 571 575
f 571 572 577
f 571 577 576
f 572 573 578
f 572 578 577
f 573 574 579
f 573 579 578
f 574 575 580
f 574 580 579
f 575 571 576
f 575 576 580
f 576 577 582
f 576 582 581
f 577 578 583
f 577 583 582
f 578 579 584
f 578 584 583
f 579 580 585
f 579 585 584
f 580 576 581
f 580 581 585
f 581 582 587
f 581 587 586
f 582 583 588
f 582 588 587
f 583 584 589
f 583 589 588
f 584 585 590
f 584 590 589
f 585 581 586
f 585 586 590
f 586 587 592
f 586 592 591
f 587 588 593
f 587 593 592
f 588 589 594
f 588 594 593
f 589 590 595
f 589 595 594
f 590 586 591
f 590 591 595
f 591 592 597
f 591 597 596
f 592 593 598
f 592 598 597
f 593 594 599
f 593 599 598
f 594 595 600
f 594 600 599
f 595 591 596
f 595 596 600
f 596 597 602
f 596 602 601
f 597 598 603
f 597 603 602
f 598 599 604
f 598 604 603
f 599 600 605
f 599 605 604
f 600 596 601
f 600 601 605
f 601 602 607
f 601 607 606
f 602 603 608
f 602 608 607
f 603 604 609
f 603 609 608
f 604 605 610
f 604 610 609
f 605 601 606
f 605 606 610
f 606 607 612
f 606 612 611
f 607 608 613
f 607 613 612
f 608 609 614
f 608 614 613
f 609 610 615
f 609 615 614
f 610 606 611
f 610 611 615
f 611 612 617
f 611 617 616
f 612 613 618
f 612 618 617
f 613 614 619
f 613 619 618
f 614 615 620
f 614 620 619
f 615 611 616
f 615 616 620
f 616 617 622
f 616 622 621
f 617 618 623
f 617 623 622
f 618 619 624
f 618 624 623
f 619 620 625
f 619 625 624
f 620 616 621
f 620 621 625
f 621 622 627
f 621 627 626
f 622 623 628
f 622 628 627
f 623 624 629
f 623 629 628
f 624 625 630
f 624 630 629
f 625 621 626
f 625 626 630
f 626 627 632
f 626 632 631
f 627 628 633
f 627 633 632
f 628 629 634
f 628 634 633
f 629 630 635
f 629 635 634
f 630 626 631
f 630 631 635
f 631 632 637
f 631 637 636
f 632 633 638
f 632 638 637
f 633 634 639
f 633 639 638
f 634 635 640
f 634 640 639
f 635 631 636
f 635 636 640
f 636 637 642
f 636 642 641
f 637 638 643
f 637 643 642
f 638 639 644
f 638 644 643
f 639 640 645
f 639 645 644
f 640 636 641
f 640 641 645
f 641 642 647
f 641 647 646
f 642 643 648
f 642 648 647
f 643 644 649
f 643 649 648
f 644 645 650
f 644 650 649
f 645 641 646
f 645 646 650
f 651 652 657
f 651 657 656
f 652 653 658
f 652 658 657
f 653 654 659
f 653 659 658
f 654 655 660
f 654 660 659
f 655 651 656
f 655 656 660
f 656 657 662
f 656 662 661
f 657 658 663
f 657 663 662
f 658 659 664
f 658 664 663
f 659 660 665
f 659 665 664
f 660 656 661
f 660 661 665
f 661 662 667
f 661 667 666
f 662 663 668
f 662 668 667
f 663 664 669
f 663 669 668
f 664 665 670
f 664 670 669
f 665 661 666
f 665 666 670
f 666 667 672
f 666 672 671
f 667 668 673
f 667 673 672
f 668 669 674
f 668 674 673
f 669 670 675
f 669 675 674
f 670 666 671
f 670 671 675
f 671 672 677
f 671 677 676
f 672 673 678
f 672 678 677
f 673 674 679
f 673 679 678
f 674 675 680
f 674 680 679
f 675 671 676
f 675 676 680
f 676 677 682
f 676 682 681
f 677 678 683
f 677 683 682
f 678 679 684
f 678 684 683
f 679 680 685
f 679 685 684
f 680 676 681
f 680 681 685
f 681 682 687
f 681 687 686
f 682 683 688
f 682 688 687
f 683 684 689
f 683 689 688
f 684 685 690
f 684 690 689
f 685 681 686
f 685 686 690
f 686 687 692
f 686 692 691
f 687 688 693
f 687 693 692
f 688 689 694
f 688 694 693
f 689 690 695
f 689 695 694
f 690 686 691
f 690 691 695
f 691 692 697
f 691 697 696
f 692 693 698
f 692 698 697
f 693 694 699
f 693 699 698
f 694 695 700
f 694 700 699
f 695 691 696
f 695 696 700
f 696 697 702
f 696 702 701
f 697 698 703
f 697 703 702
f 698 699 704
f 698 704 703
f 699 700 705
f 699 705 704
f 700 696 701
f 700 701 705
f 701 702 707
f 701 707 706
f 702 703 708
f 702 708 707
f 703 704 709
f 703 709 708
f 704 705 710
f 704 710 709
f 705 701 706
f 705 706 710
f 706 707 712
f 706 712 711
f 707 708 713
f 707 713 712
f 708 709 714
f 708 714 713
f 709 710 715
f 709 715 714
f 710 706 711
f 710 711 715
f 711 712 717
f 711 717 716
f 712 713 718
f 712 718 717
f 713 714 719
f 713 719 718
f 714 715 720
f 714 720 719
f 715 711 716
f 715 716 720
f 716 717 722
f 716 722 721
f 717 718 723
f 717 723 722
f 718 719 724
f 718 724 723
f 719 720 725
f 719 725 724
f 720 716 721
f 720 721 725
f 721 722 727
f 721 727 726
f 722 723 728
f 722 728 727
f 723 724 729
f 723 729 728
f 724 725 730
f 724 730 729
f 725 721 726
f 725 726 730
f 726 727 732
f 726 732 731
f 727 728 733
f 727 733 732
f 728 729 734
f 728 734 733
f 729 730 735
f 729 735 734
f 730 726 731
f 730 731 735
f 731 732 737
f 731 737 736
f 732 733 738
f 732 738 737
f 733 734 739
f 733 739 738
f 734 735 740
f 734 740 739
f 735 731 736
f 735 736 740
f 736 737 742
f 736 742 741
f 737 738 743
f 737 743 742
f 738 739 744
f 738 744 743
f 739 740 745
f 739 745 744
f 740 736 741
f 740 741 745
f 741 742 747
f 741 747 746
f 742 743 748
f 742 748 747
f 743 744 749
f 743 749 748
f 744 745 750
f 744 750 749
f 745 741 746
f 745 746 750
f 746 747 752
f 746 752 751
f 747 748 753
f 747 753 752
f 748 749 754
f 748 754 753
f 749 750 755
f 749 755 754
f 750 746 751
f 750 751 755
f 751 752 757
f 751 757 756
f 752 753 758
f 752 758 757
f 753 754 759
f 753 759 758
f 754 755 760
f 754 760 759
f 755 751 756
f 755 756 760
f 756 757 762
f 756 762 761
f 757 758 763
f 757 763 762
f 758 759 764
f 758 764 763
f 759 760 765
f 759 765 764
f 760 756 761
f 760 761 765
f 761 762 767
f 761 767 766
f 762 763 768
f 762 768 767
f 763 764 769
f 763 769 768
f 764 765 770
f 764 770 769
f 765 761 766
f 765 766 770
f 766 767 772
f 766 772 771
f 767 768 773
f 767 773 772
f 768 769 774
f 768 774 773
f 769 770 775
f 769 775 774
f 770 766 771
f 770 771 775
f 771 772 777
f 771 777 776
f 772 773 778
f 772 778 777
f 773 774 779
f 773 779 778
f 774 775 780
f 774 780 779
f 775 771 776
f 775 776 780
f 776 777 782
f 776 782 781
f 777 778 783
f 777 783 782
f 778 779 784
f 778 784 783
f 779 780 785
f 779 785 784
f 780 776 781
f 780 781 785
f 781 782 787
f 781 787 786
f 782 783 788
f 782 788 787
f 783 784 789
f 783 789 788
f 784 785 790
f 784 790 789
f 785 781 786
f 785 786 790
f 786 787 792
f 786 792 791
f 787 788 793
f 787 793 792
f 788 789 794
f 788 794 793
f 789 790 795
f 789 795 794
f 790 786 791
f 790 791 795
f 791 792 797
f 791 797 796
f 792 793 798
f 792 798 797
f 793 794 799
f 793 799 798
f 794 795 800
f 794 800 799
f 795 791 796
f 795 796 800
f 796 797 802
f 796 802 801
f 797 798 803
f 797 803 802
f 798 799 804
f 798 804 803
f 799 800 805
f 799 805 804
f 800 796 801
f 800 801 805
f 801 802 807
f 801 807 806
f 802 803 808
f 802 808 807
f 803 804 809
f 803 809 808
f 804 805 810
f 804 810 809
f 805 801 806
f 805 806 810
f 806 807 812
f 806 812 811
f 807 808 813
f 807 813 812
f 808 809 814
f 808 814 813
f 809 810 815
f 809 815 814
f 810 806 811
f 810 811 815
f 811 812 817
f 811 817 816
f 812 813 818
f 812 818 817
f 813 814 819
f 813 819 818
f 814 815 820
f 814 820 819
f 815 811 816
f 815 816 820
f 816 817 822
f 816 822 821
f 817 818 823
f 817 823 822
f 818 819 824
f 818 824 823
f 819 820 825
f 819 825 824
f 820 816 821
f 820 821 825
f 821 822 827
f 821 827 826
f 822 823 828
f 822 828 827
f 823 824 829
f 823 829 828
f 824 825 830
f 824 830 829
f 825 821 826
f 825 826 830
f 826 827 832
f 826 832 831
f 827 828 833
f 827 833 832
f 828 829 834
f 828 834 833
f 829 830 835
f 829 835 834
f 830 826 831
f 830 831 835
f 831 832 837
f 831 837 836
f 832 833 838
f 832 838 837
f 833 834 839
f 833 839 838
f 834 835 840
f 834 840 839
f 835 831 836
f 835 836 840
f 836 837 842
f 836 842 841
f 837 838 843
f 837 843 842
f 838 839 844
f 838 844 843
f 839 840 845
f 839 845 844
f 840 836 841
f 840 841 845
f 841 842 847
f 841 847 846
f 842 843 848
f 842 848 847
f 843 844 849
f 843 849 848
f 844 845 850
f 844 850 849
f 845 841 846
f 845 846 850
f 846 847 852
f 846 852 851
f 847 848 853
f 847 853 852
f 848 849 854
f 848 854 853
f 849 850 855
f 849 855 854
f 850 846 851
f 850 851 855
f 851 852 857
f 851 857 856
f 852 853 858
f 852 858 857
f 853 854 859
f 853 859 858
f 854 855 860
f 854 860 859
f 855 851 856
f 855 856 860
f 856 857 862
f 856 862 861
f 857 858 863
f 857 863 862
f 858 859 864
f 858 864 863
f 859 860 865
f 859 865 864
f 860 856 861
f 860 861 865
f 861 862 867
f 861 867 866
f 862 863 868
f 862 868 867
f 863 864 869
f 863 869 868
f 864 865 870
f 864 870 869
f 865 861 866
f 865 866 870
f 866 867 872
f 866 872 871
f 867 868 873
f 867 873 872
f 868 869 874
f 868 874 873
f 869 870 875
f 869 875 874
f 870 866 871
f 870 871 875
f 871 872 877
f 871 877 876
f 872 873 878
f 872 878 877
f 873 874 879
f 873 879 878
f 874 875 880
f 874 880 879
f 875 871 876
f 875 876 880
f 876 877 882
f 876 882 881
f 877 878 883
f 877 883 882
f 878 879 884
f 878 884 883
f 879 880 885
f 879 885 884
f 880 876 881
f 880 881 885
f 881 882 887
f 881 887 886
f 882 883 888
f 882 888 887
f 883 884 889
f 883 889 888
f 884 885 890
f 884 890 889
f 885 881 886
f 885 886 890
f 886 887 892
f 886 892 891
f 887 888 893
f 887 893 892
f 888 889 894
f 888 894 893
f 889 890 895
f 889 895 894
f 890 886 891
f 890 891 895
f 891 892 897
f 891 897 896
f 892 893 898
f 892 898 897
f 893 894 899
f 893 899 898
f 894 895 900
f 894 900 899
f 895 891 896
f 895 896 900
f 896 897 902
f 896 902 901
f 897 898 903
f 897 903 902
f 898 899 904
f 898 904 903
f 899 900 905
f 899 905 904
f 900 896 901
f 900 901 905
f 901 902 907
f 901 907 906
f 902 903 908
f 902 908 907
f 903 904 909
f 903 909 908
f 904 905 910
f 904 910 909
f 905 901 906
f 905 906 910
f 906 907 912
f 906 912 911
f 907 908 913
f 907 913 912
f 908 909 914
f 908 914 913
f 909 910 915
f 909 915 914
f 910 906 911
f 910 911 915
f 911 912 917
f 911 917 916
f 912 913 918
f 912 918 917
f 913 914 919
f 913 919 918
f 914 915 920
f 914 920 919
f 915 911 916
f 915 916 920
f 916 917 922
f 916 922 921
f 917 918 923
f 917 923 922
f 918 919 924
f 918 924 923
f 919 920 925
f 919 925 924
f 920 916 921
f 920 921 925
f 921 922 927
f 921 927 926
f 922 923 928
f 922 928 927
f 923 924 929
f 923 929 928
f 924 925 930
f 924 930 929
f 925 921 926
f 925 926 930
f 926 927 932
f 926 932 931
f 927 928 933
f 927 933 932
f 928 929 934
f 928 934 933
f 929 930 935
f 929 935 934
f 930 926 931
f 930 931 935
f 931 932 937
f 931 937 936
f 932 933 938
f 932 938 937
f 933 934 939
f 933 939 938
f 934 935 940
f 934 940 939
f 935 931 936
f 935 936 940
f 936 937 942
f 936 942 941
f 937 938 943
f 937 943 942
f 938 939 944
f 938 944 943
f 939 940 945
f 939 945 944
f 940 936 941
f 940 941 945
f 941 942 947
f 941 947 946
f 942 943 948
f 942 948 947
f 943 944 949
f 943 949 948
f 944 945 950
f 944 950 949
f 945 941 946
f 945 946 950
f 946 947 952
f 946 952 951
f 947 948 953
f 947 953 952
f 948 949 954
f 948 954 953
f 949 950 955
f 949 955 954
f 950 946 951
f 950 951 955
f 951 952 957
f 951 957 956
f 952 953 958
f 952 958 957
f 953 954 959
f 953 959 958
f 954 955 960
f 954 960 959
f 955 951 956
f 955 956 960
f 956 957 962
f 956 962 961
f 957 958 963
f 957 963 962
f 958 959 964
f 958 964 963
f 959 960 965
f 959 965 964
f 960 956 961
f 960 961 965
f 961 962 967
f 961 967 966
f 962 963 968
f 962 968 967
f 963 964 969
f 963 969 968
f 964 965 970
f 964 970 969
f 965 961 966
f 965 966 970
f 966 967 972
f 966 972 971
f 967 968 973
f 967 973 972
f 968 969 974
f 968 974 973
f 969 970 975
f 969 975 974
f 970 966 971
f 970 971 975
